<svg xmlns="http://www.w3.org/2000/svg" xmlns:xlink="http://www.w3.org/1999/xlink" width="500" zoomAndPan="magnify" viewBox="0 0 375 374.999991" height="500" preserveAspectRatio="xMidYMid meet" version="1.0"><defs><filter x="0%" y="0%" width="100%" height="100%" id="f007b505c1"><feColorMatrix values="0 0 0 0 1 0 0 0 0 1 0 0 0 0 1 0 0 0 1 0" color-interpolation-filters="sRGB"/></filter><g/><mask id="e0945c8689"><g filter="url(#f007b505c1)"><rect x="-37.5" width="450" fill="#000000" y="-37.499999" height="449.999989" fill-opacity="0.53"/></g></mask><clipPath id="1b1ff951c3"><rect x="0" width="50" y="0" height="20"/></clipPath></defs><rect x="-37.5" width="450" fill="#ffffff" y="-37.499999" height="449.999989" fill-opacity="1"/><rect x="-37.5" width="450" fill="#262523" y="-37.499999" height="449.999989" fill-opacity="1"/><g fill="#dddaba" fill-opacity="1"><g transform="translate(2.983613, 168.999987)"><g><path d="M 45.921875 -45.921875 L 45.921875 -47.046875 L 1.890625 -47.046875 L 1.890625 -45.921875 L 7.0625 -45.921875 L 23.375 0.703125 L 24.296875 0.703125 L 31.921875 -21.0625 L 39.765625 0.703125 L 40.671875 0.703125 L 57.046875 -45.921875 L 61.875 -45.921875 L 61.875 -47.046875 L 49.765625 -47.046875 L 49.765625 -45.921875 L 55.796875 -45.921875 L 42.84375 -9.171875 L 35.84375 -29.40625 L 41.65625 -45.921875 Z M 40.390625 -45.921875 L 35.203125 -31.21875 L 30.03125 -45.921875 Z M 26.53125 -9.3125 L 13.71875 -45.921875 L 23.375 -45.921875 L 31.296875 -22.953125 Z M 26.53125 -9.3125 "/></g></g></g><g fill="#dddaba" fill-opacity="1"><g transform="translate(57.230178, 168.999987)"><g><path d="M 21.140625 -47.046875 L 2.3125 -47.046875 L 2.3125 -45.921875 L 8.328125 -45.921875 L 8.328125 -1.125 L 2.3125 -1.125 L 2.3125 0 L 21.140625 0 L 21.140625 -1.125 L 15.125 -1.125 L 15.125 -24.4375 L 33.671875 -24.4375 L 33.671875 -1.125 L 27.65625 -1.125 L 27.65625 0 L 46.484375 0 L 46.484375 -1.125 L 40.453125 -1.125 L 40.453125 -45.921875 L 46.484375 -45.921875 L 46.484375 -47.046875 L 27.65625 -47.046875 L 27.65625 -45.921875 L 33.671875 -45.921875 L 33.671875 -25.625 L 15.125 -25.625 L 15.125 -45.921875 L 21.140625 -45.921875 Z M 21.140625 -47.046875 "/></g></g></g><g fill="#dddaba" fill-opacity="1"><g transform="translate(96.497561, 168.999987)"><g><path d="M 21.84375 -45.921875 L 21.84375 -47.046875 L 3.015625 -47.046875 L 3.015625 -45.921875 L 9.03125 -45.921875 L 9.03125 -1.125 L 3.015625 -1.125 L 3.015625 0 L 21.84375 0 L 21.84375 -1.125 L 15.8125 -1.125 L 15.8125 -45.921875 Z M 21.84375 -45.921875 "/></g></g></g><g fill="#dddaba" fill-opacity="1"><g transform="translate(112.666208, 168.999987)"><g><path d="M 31.5625 -47.53125 L 29.546875 -44.9375 C 28.703125 -45.40625 27.90625 -45.828125 27.15625 -46.203125 C 26.414062 -46.578125 25.660156 -46.878906 24.890625 -47.109375 C 24.117188 -47.335938 23.300781 -47.507812 22.4375 -47.625 C 21.570312 -47.75 20.578125 -47.8125 19.453125 -47.8125 C 17.171875 -47.8125 15.128906 -47.4375 13.328125 -46.6875 C 11.535156 -45.9375 10.007812 -44.929688 8.75 -43.671875 C 7.488281 -42.421875 6.53125 -40.976562 5.875 -39.34375 C 5.226562 -37.707031 4.90625 -35.976562 4.90625 -34.15625 C 4.90625 -31.6875 5.660156 -29.425781 7.171875 -27.375 C 8.691406 -25.320312 11.0625 -23.757812 14.28125 -22.6875 C 15.820312 -22.164062 17.128906 -21.742188 18.203125 -21.421875 C 19.273438 -21.097656 20.273438 -20.78125 21.203125 -20.46875 C 22.140625 -20.164062 23.085938 -19.835938 24.046875 -19.484375 C 25.003906 -19.140625 26.113281 -18.664062 27.375 -18.0625 C 28.957031 -17.3125 30.03125 -16.269531 30.59375 -14.9375 C 31.15625 -13.613281 31.4375 -12.273438 31.4375 -10.921875 C 31.4375 -9.242188 31.109375 -7.710938 30.453125 -6.328125 C 29.796875 -4.953125 28.929688 -3.796875 27.859375 -2.859375 C 26.785156 -1.929688 25.546875 -1.210938 24.140625 -0.703125 C 22.742188 -0.191406 21.320312 0.0625 19.875 0.0625 C 18.195312 0.0625 16.585938 -0.226562 15.046875 -0.8125 C 13.503906 -1.394531 12.078125 -2.222656 10.765625 -3.296875 C 9.460938 -4.367188 8.332031 -5.695312 7.375 -7.28125 C 6.425781 -8.863281 5.695312 -10.632812 5.1875 -12.59375 C 5.039062 -13.207031 4.78125 -13.515625 4.40625 -13.515625 C 4.082031 -13.515625 3.921875 -13.1875 3.921875 -12.53125 L 3.921875 0 C 3.921875 0.601562 4.128906 0.90625 4.546875 0.90625 C 4.828125 0.90625 5.128906 0.671875 5.453125 0.203125 L 7.984375 -3.4375 C 8.535156 -2.914062 9.21875 -2.375 10.03125 -1.8125 C 10.851562 -1.257812 11.765625 -0.75 12.765625 -0.28125 C 13.773438 0.1875 14.847656 0.570312 15.984375 0.875 C 17.128906 1.175781 18.3125 1.328125 19.53125 1.328125 C 21.769531 1.328125 23.84375 0.914062 25.75 0.09375 C 27.664062 -0.71875 29.320312 -1.84375 30.71875 -3.28125 C 32.125 -4.726562 33.234375 -6.441406 34.046875 -8.421875 C 34.867188 -10.410156 35.28125 -12.550781 35.28125 -14.84375 C 35.28125 -17.96875 34.546875 -20.613281 33.078125 -22.78125 C 31.609375 -24.957031 29.285156 -26.507812 26.109375 -27.4375 C 25.035156 -27.769531 24.03125 -28.050781 23.09375 -28.28125 C 22.164062 -28.507812 21.210938 -28.765625 20.234375 -29.046875 C 19.253906 -29.328125 18.226562 -29.640625 17.15625 -29.984375 C 16.082031 -30.335938 14.890625 -30.773438 13.578125 -31.296875 C 12.128906 -31.847656 11.03125 -32.707031 10.28125 -33.875 C 9.539062 -35.039062 9.171875 -36.394531 9.171875 -37.9375 C 9.171875 -39.382812 9.472656 -40.65625 10.078125 -41.75 C 10.679688 -42.851562 11.460938 -43.753906 12.421875 -44.453125 C 13.378906 -45.148438 14.472656 -45.671875 15.703125 -46.015625 C 16.941406 -46.367188 18.191406 -46.546875 19.453125 -46.546875 C 21.367188 -46.546875 23.050781 -46.21875 24.5 -45.5625 C 25.945312 -44.914062 27.160156 -44.054688 28.140625 -42.984375 C 29.117188 -41.910156 29.898438 -40.671875 30.484375 -39.265625 C 31.066406 -37.867188 31.453125 -36.425781 31.640625 -34.9375 C 31.679688 -34.46875 31.890625 -34.234375 32.265625 -34.234375 C 32.597656 -34.234375 32.765625 -34.46875 32.765625 -34.9375 L 32.765625 -47.390625 C 32.765625 -47.859375 32.625 -48.09375 32.34375 -48.09375 C 32.101562 -48.09375 31.84375 -47.90625 31.5625 -47.53125 Z M 31.5625 -47.53125 "/></g></g></g><g fill="#dddaba" fill-opacity="1"><g transform="translate(141.924136, 168.999987)"><g><path d="M 21.421875 -47.046875 L 2.03125 -47.046875 L 2.03125 -45.921875 L 8.046875 -45.921875 L 8.046875 -1.125 L 2.03125 -1.125 L 2.03125 0 L 20.859375 0 L 20.859375 -1.125 L 14.84375 -1.125 L 14.84375 -21.625 L 22.125 -21.625 C 24.175781 -21.625 26.050781 -21.925781 27.75 -22.53125 C 29.457031 -23.144531 30.914062 -24.007812 32.125 -25.125 C 33.34375 -26.25 34.289062 -27.59375 34.96875 -29.15625 C 35.644531 -30.71875 35.984375 -32.457031 35.984375 -34.375 C 35.984375 -36.238281 35.644531 -37.953125 34.96875 -39.515625 C 34.289062 -41.078125 33.320312 -42.414062 32.0625 -43.53125 C 30.800781 -44.65625 29.269531 -45.519531 27.46875 -46.125 C 25.675781 -46.738281 23.660156 -47.046875 21.421875 -47.046875 Z M 14.84375 -22.75 L 14.84375 -45.921875 L 21.421875 -45.921875 C 24.035156 -45.921875 26.078125 -45.140625 27.546875 -43.578125 C 29.015625 -42.015625 29.75 -39.363281 29.75 -35.625 L 29.75 -33.109375 C 29.75 -29.515625 29.023438 -26.890625 27.578125 -25.234375 C 26.128906 -23.578125 24.3125 -22.75 22.125 -22.75 Z M 14.84375 -22.75 "/></g></g></g><g fill="#dddaba" fill-opacity="1"><g transform="translate(171.182065, 168.999987)"><g><path d="M 15.125 -24.21875 L 20.65625 -24.21875 C 21.675781 -24.21875 22.488281 -24.066406 23.09375 -23.765625 C 23.707031 -23.460938 24.1875 -23.03125 24.53125 -22.46875 C 24.882812 -21.90625 25.15625 -21.226562 25.34375 -20.4375 C 25.53125 -19.644531 25.71875 -18.757812 25.90625 -17.78125 C 26.039062 -17.125 26.222656 -16.796875 26.453125 -16.796875 C 26.734375 -16.796875 26.875 -17.097656 26.875 -17.703125 L 26.875 -31.921875 C 26.875 -32.484375 26.734375 -32.765625 26.453125 -32.765625 C 26.222656 -32.765625 26.039062 -32.4375 25.90625 -31.78125 C 25.71875 -30.800781 25.53125 -29.914062 25.34375 -29.125 C 25.15625 -28.332031 24.882812 -27.65625 24.53125 -27.09375 C 24.1875 -26.53125 23.707031 -26.097656 23.09375 -25.796875 C 22.488281 -25.492188 21.675781 -25.34375 20.65625 -25.34375 L 15.125 -25.34375 L 15.125 -45.921875 L 25.765625 -45.921875 C 27.347656 -45.921875 28.675781 -45.535156 29.75 -44.765625 C 30.820312 -43.992188 31.679688 -43.035156 32.328125 -41.890625 C 32.984375 -40.753906 33.460938 -39.539062 33.765625 -38.25 C 34.078125 -36.96875 34.253906 -35.816406 34.296875 -34.796875 C 34.296875 -34.140625 34.484375 -33.8125 34.859375 -33.8125 C 35.179688 -33.8125 35.34375 -34.113281 35.34375 -34.71875 L 35.34375 -45.359375 C 35.34375 -46.484375 34.757812 -47.046875 33.59375 -47.046875 L 2.3125 -47.046875 L 2.3125 -45.921875 L 8.328125 -45.921875 L 8.328125 -1.125 L 2.375 -1.125 L 2.375 0 L 35.28125 0 C 36.632812 0 37.3125 -0.742188 37.3125 -2.234375 L 37.3125 -12.734375 C 37.3125 -13.859375 37.125 -14.421875 36.75 -14.421875 C 36.425781 -14.421875 36.171875 -13.929688 35.984375 -12.953125 C 35.609375 -11.179688 35.207031 -9.570312 34.78125 -8.125 C 34.363281 -6.675781 33.804688 -5.425781 33.109375 -4.375 C 32.410156 -3.320312 31.523438 -2.515625 30.453125 -1.953125 C 29.378906 -1.398438 28.023438 -1.125 26.390625 -1.125 L 15.125 -1.125 Z M 15.125 -24.21875 "/></g></g></g><g fill="#dddaba" fill-opacity="1"><g transform="translate(202.679865, 168.999987)"><g><path d="M 36.953125 -3.015625 C 36.816406 -3.472656 36.710938 -4.125 36.640625 -4.96875 C 36.578125 -5.8125 36.53125 -6.722656 36.5 -7.703125 C 36.476562 -8.679688 36.457031 -9.679688 36.4375 -10.703125 C 36.414062 -11.734375 36.332031 -12.71875 36.1875 -13.65625 C 35.90625 -15.519531 35.4375 -17.054688 34.78125 -18.265625 C 34.132812 -19.484375 33.34375 -20.476562 32.40625 -21.25 C 31.476562 -22.019531 30.40625 -22.625 29.1875 -23.0625 C 27.976562 -23.507812 26.671875 -23.921875 25.265625 -24.296875 C 28.910156 -24.941406 31.710938 -26.234375 33.671875 -28.171875 C 35.628906 -30.109375 36.609375 -32.546875 36.609375 -35.484375 C 36.609375 -37.304688 36.222656 -38.941406 35.453125 -40.390625 C 34.679688 -41.835938 33.640625 -43.050781 32.328125 -44.03125 C 31.023438 -45.007812 29.472656 -45.753906 27.671875 -46.265625 C 25.878906 -46.785156 23.984375 -47.046875 21.984375 -47.046875 L 2.234375 -47.046875 L 2.234375 -45.921875 L 8.265625 -45.921875 L 8.265625 -1.125 L 2.234375 -1.125 L 2.234375 0 L 21.0625 0 L 21.0625 -1.125 L 15.046875 -1.125 L 15.046875 -24.015625 L 20.859375 -24.015625 C 21.609375 -24.015625 22.398438 -23.882812 23.234375 -23.625 C 24.078125 -23.363281 24.859375 -22.867188 25.578125 -22.140625 C 26.304688 -21.421875 26.9375 -20.421875 27.46875 -19.140625 C 28.007812 -17.859375 28.394531 -16.210938 28.625 -14.203125 C 28.769531 -12.992188 28.851562 -11.757812 28.875 -10.5 C 28.894531 -9.238281 28.960938 -8.023438 29.078125 -6.859375 C 29.203125 -5.691406 29.414062 -4.617188 29.71875 -3.640625 C 30.019531 -2.660156 30.5 -1.820312 31.15625 -1.125 C 31.757812 -0.46875 32.46875 -0.0234375 33.28125 0.203125 C 34.101562 0.441406 34.976562 0.5625 35.90625 0.5625 C 36.695312 0.5625 37.488281 0.476562 38.28125 0.3125 C 39.082031 0.144531 39.820312 -0.0507812 40.5 -0.28125 C 41.175781 -0.507812 41.757812 -0.753906 42.25 -1.015625 C 42.738281 -1.273438 43.097656 -1.519531 43.328125 -1.75 C 43.472656 -1.882812 43.546875 -2.023438 43.546875 -2.171875 C 43.546875 -2.304688 43.472656 -2.375 43.328125 -2.375 C 43.234375 -2.375 43.09375 -2.328125 42.90625 -2.234375 C 41.976562 -1.585938 40.929688 -1.265625 39.765625 -1.265625 C 38.316406 -1.265625 37.378906 -1.847656 36.953125 -3.015625 Z M 15.046875 -25.125 L 15.046875 -45.921875 L 21.984375 -45.921875 C 27.296875 -45.921875 29.953125 -42.863281 29.953125 -36.75 L 29.953125 -34.234375 C 29.953125 -28.160156 27.296875 -25.125 21.984375 -25.125 Z M 15.046875 -25.125 "/></g></g></g><g fill="#dddaba" fill-opacity="1"><g transform="translate(183.301363, 214.934239)"><g><path d="M 63.03125 2.625 C 62.519531 2.625 62.050781 2.351562 61.625 1.8125 C 61.394531 1.207031 61.28125 0.644531 61.28125 0.125 C 61.28125 -0.0703125 61.300781 -0.273438 61.34375 -0.484375 C 61.382812 -0.703125 61.421875 -0.914062 61.453125 -1.125 C 61.648438 -1.925781 61.90625 -2.703125 62.21875 -3.453125 C 62.53125 -4.210938 62.875 -4.984375 63.25 -5.765625 C 63.769531 -6.878906 64.359375 -7.957031 65.015625 -9 C 65.671875 -10.050781 66.390625 -11.066406 67.171875 -12.046875 C 67.335938 -12.296875 67.515625 -12.539062 67.703125 -12.78125 C 67.890625 -13.03125 68.125 -13.300781 68.40625 -13.59375 C 68.75 -14.050781 69.125 -14.484375 69.53125 -14.890625 C 69.9375 -15.304688 70.320312 -15.703125 70.6875 -16.078125 C 71.175781 -16.597656 71.734375 -17.179688 72.359375 -17.828125 C 72.992188 -18.472656 73.539062 -19.050781 74 -19.5625 C 73.71875 -19.414062 73.445312 -19.300781 73.1875 -19.21875 C 72.550781 -18.988281 71.925781 -18.738281 71.3125 -18.46875 C 70.695312 -18.195312 70.085938 -17.929688 69.484375 -17.671875 C 69.285156 -17.585938 69.070312 -17.488281 68.84375 -17.375 C 68.613281 -17.257812 68.410156 -17.144531 68.234375 -17.03125 C 68.035156 -16.914062 67.820312 -16.804688 67.59375 -16.703125 C 67.363281 -16.609375 67.132812 -16.503906 66.90625 -16.390625 C 66.363281 -16.097656 65.8125 -15.820312 65.25 -15.5625 C 64.6875 -15.300781 64.117188 -15.015625 63.546875 -14.703125 L 60.328125 -12.90625 C 59.953125 -12.695312 59.519531 -12.457031 59.03125 -12.1875 C 58.550781 -11.914062 58.140625 -11.679688 57.796875 -11.484375 C 57.078125 -11.023438 56.382812 -10.585938 55.71875 -10.171875 C 55.0625 -9.753906 54.375 -9.332031 53.65625 -8.90625 C 52.28125 -8.039062 50.984375 -7.160156 49.765625 -6.265625 C 48.546875 -5.378906 47.28125 -4.476562 45.96875 -3.5625 C 44.96875 -2.851562 44.039062 -2.195312 43.1875 -1.59375 C 42.34375 -0.988281 41.59375 -0.546875 40.9375 -0.265625 C 40.707031 -0.148438 40.460938 -0.09375 40.203125 -0.09375 C 39.941406 -0.09375 39.710938 -0.148438 39.515625 -0.265625 C 39.316406 -0.492188 39.21875 -0.789062 39.21875 -1.15625 C 39.21875 -1.476562 39.289062 -1.820312 39.4375 -2.1875 C 39.570312 -2.675781 39.757812 -3.140625 40 -3.578125 C 40.25 -4.023438 40.503906 -4.476562 40.765625 -4.9375 C 40.992188 -5.375 41.257812 -5.789062 41.5625 -6.1875 C 41.863281 -6.59375 42.140625 -6.984375 42.390625 -7.359375 C 42.796875 -7.984375 43.242188 -8.570312 43.734375 -9.125 C 44.222656 -9.6875 44.695312 -10.257812 45.15625 -10.84375 C 45.4375 -11.1875 45.710938 -11.53125 45.984375 -11.875 C 46.253906 -12.21875 46.535156 -12.53125 46.828125 -12.8125 C 47.203125 -13.238281 47.570312 -13.679688 47.9375 -14.140625 C 48.3125 -14.597656 48.6875 -15.03125 49.0625 -15.4375 C 50.09375 -16.46875 51.109375 -17.5 52.109375 -18.53125 C 53.117188 -19.5625 54.15625 -20.59375 55.21875 -21.625 C 55.90625 -22.375 56.59375 -23.101562 57.28125 -23.8125 C 57.96875 -24.53125 58.679688 -25.222656 59.421875 -25.890625 C 60.335938 -26.742188 61.238281 -27.585938 62.125 -28.421875 C 63.019531 -29.253906 63.925781 -30.070312 64.84375 -30.875 C 65.613281 -31.53125 66.394531 -32.1875 67.1875 -32.84375 C 67.976562 -33.507812 68.742188 -34.171875 69.484375 -34.828125 C 70.054688 -35.347656 70.722656 -35.898438 71.484375 -36.484375 C 72.242188 -37.066406 72.910156 -37.601562 73.484375 -38.09375 C 73.023438 -37.84375 72.65625 -37.703125 72.375 -37.671875 C 71.3125 -37.410156 70.304688 -37.234375 69.359375 -37.140625 C 68.410156 -37.054688 67.347656 -37.03125 66.171875 -37.0625 C 65.515625 -37.09375 64.847656 -37.128906 64.171875 -37.171875 C 63.503906 -37.210938 62.835938 -37.289062 62.171875 -37.40625 C 61.710938 -37.46875 61.117188 -37.566406 60.390625 -37.703125 C 59.660156 -37.847656 59.050781 -37.96875 58.5625 -38.0625 C 57.988281 -38.175781 57.4375 -38.300781 56.90625 -38.4375 C 56.375 -38.582031 55.820312 -38.710938 55.25 -38.828125 C 54.445312 -39.003906 53.648438 -39.207031 52.859375 -39.4375 C 52.078125 -39.664062 51.269531 -39.835938 50.4375 -39.953125 C 49.832031 -40.035156 49.234375 -40.132812 48.640625 -40.25 C 48.054688 -40.363281 47.46875 -40.476562 46.875 -40.59375 C 46.15625 -40.738281 45.421875 -40.851562 44.671875 -40.9375 C 43.929688 -41.019531 43.203125 -41.117188 42.484375 -41.234375 C 42.109375 -41.296875 41.773438 -41.351562 41.484375 -41.40625 C 41.203125 -41.46875 40.816406 -41.507812 40.328125 -41.53125 C 39.785156 -41.644531 39.210938 -41.738281 38.609375 -41.8125 C 38.015625 -41.882812 37.367188 -41.921875 36.671875 -41.921875 C 36.210938 -41.953125 35.789062 -41.953125 35.40625 -41.921875 C 35.019531 -41.890625 34.628906 -41.875 34.234375 -41.875 C 33.972656 -41.90625 33.679688 -41.921875 33.359375 -41.921875 C 33.046875 -41.921875 32.734375 -41.921875 32.421875 -41.921875 C 32.160156 -41.921875 31.898438 -41.921875 31.640625 -41.921875 C 31.390625 -41.921875 31.148438 -41.894531 30.921875 -41.84375 C 30.804688 -41.8125 30.695312 -41.796875 30.59375 -41.796875 C 30.488281 -41.796875 30.378906 -41.796875 30.265625 -41.796875 C 29.347656 -41.828125 28.453125 -41.75 27.578125 -41.5625 C 26.703125 -41.375 25.804688 -41.207031 24.890625 -41.0625 C 24.347656 -40.945312 23.796875 -40.820312 23.234375 -40.6875 C 22.679688 -40.5625 22.117188 -40.429688 21.546875 -40.296875 C 21.023438 -40.179688 20.484375 -40.007812 19.921875 -39.78125 C 19.367188 -39.550781 18.847656 -39.363281 18.359375 -39.21875 C 17.554688 -38.988281 16.796875 -38.679688 16.078125 -38.296875 C 15.359375 -37.910156 14.628906 -37.53125 13.890625 -37.15625 C 12.828125 -36.664062 11.816406 -36.101562 10.859375 -35.46875 C 9.898438 -34.84375 8.960938 -34.171875 8.046875 -33.453125 C 5.953125 -31.734375 4.128906 -29.785156 2.578125 -27.609375 C 2.460938 -27.410156 2.332031 -27.21875 2.1875 -27.03125 C 2.050781 -26.84375 1.925781 -26.660156 1.8125 -26.484375 C 1.664062 -26.285156 1.523438 -26.082031 1.390625 -25.875 C 1.265625 -25.675781 1.128906 -25.460938 0.984375 -25.234375 C 0.867188 -25.035156 0.773438 -24.835938 0.703125 -24.640625 C 0.640625 -24.441406 0.5625 -24.226562 0.46875 -24 C 0.351562 -24.019531 0.273438 -24.046875 0.234375 -24.078125 C 0.191406 -24.109375 0.144531 -24.125 0.09375 -24.125 C 0.03125 -24.175781 0 -24.257812 0 -24.375 C 0 -24.519531 0.0390625 -24.632812 0.125 -24.71875 C 0.300781 -25.15625 0.53125 -25.601562 0.8125 -26.0625 C 1.300781 -26.78125 1.796875 -27.488281 2.296875 -28.1875 C 2.796875 -28.882812 3.332031 -29.550781 3.90625 -30.1875 C 3.96875 -30.238281 4.023438 -30.289062 4.078125 -30.34375 C 4.140625 -30.40625 4.1875 -30.453125 4.21875 -30.484375 C 4.53125 -31.117188 4.929688 -31.644531 5.421875 -32.0625 C 5.910156 -32.476562 6.394531 -32.914062 6.875 -33.375 C 7.21875 -33.6875 7.578125 -33.96875 7.953125 -34.21875 C 8.328125 -34.476562 8.671875 -34.769531 8.984375 -35.09375 C 9.160156 -35.257812 9.289062 -35.359375 9.375 -35.390625 C 10.09375 -35.703125 10.773438 -36.070312 11.421875 -36.5 C 12.066406 -36.9375 12.734375 -37.34375 13.421875 -37.71875 C 14.421875 -38.195312 15.40625 -38.660156 16.375 -39.109375 C 17.351562 -39.554688 18.359375 -39.9375 19.390625 -40.25 C 20.390625 -40.59375 21.382812 -40.90625 22.375 -41.1875 C 23.363281 -41.476562 24.375 -41.664062 25.40625 -41.75 C 25.613281 -41.75 25.804688 -41.773438 25.984375 -41.828125 C 26.171875 -41.890625 26.367188 -41.9375 26.578125 -41.96875 C 27.609375 -42.113281 28.640625 -42.25 29.671875 -42.375 C 30.703125 -42.5 31.71875 -42.535156 32.71875 -42.484375 C 33.289062 -42.453125 33.867188 -42.441406 34.453125 -42.453125 C 35.046875 -42.472656 35.644531 -42.484375 36.25 -42.484375 C 36.738281 -42.484375 37.238281 -42.46875 37.75 -42.4375 C 38.269531 -42.40625 38.785156 -42.347656 39.296875 -42.265625 C 40.046875 -42.148438 40.8125 -42.054688 41.59375 -41.984375 C 42.382812 -41.910156 43.15625 -41.804688 43.90625 -41.671875 C 44.757812 -41.492188 45.628906 -41.347656 46.515625 -41.234375 C 47.410156 -41.117188 48.289062 -40.960938 49.15625 -40.765625 C 50.125 -40.566406 51.085938 -40.351562 52.046875 -40.125 C 53.003906 -39.894531 53.972656 -39.664062 54.953125 -39.4375 C 56.128906 -39.113281 57.304688 -38.84375 58.484375 -38.625 C 59.660156 -38.414062 60.832031 -38.195312 62 -37.96875 C 62.71875 -37.851562 63.445312 -37.765625 64.1875 -37.703125 C 64.9375 -37.648438 65.671875 -37.625 66.390625 -37.625 C 66.765625 -37.625 67.132812 -37.628906 67.5 -37.640625 C 67.875 -37.660156 68.25 -37.6875 68.625 -37.71875 C 69.832031 -37.800781 71.015625 -37.984375 72.171875 -38.265625 C 73.335938 -38.554688 74.460938 -38.972656 75.546875 -39.515625 C 75.867188 -39.660156 76.203125 -39.773438 76.546875 -39.859375 C 76.890625 -39.941406 77.203125 -40.015625 77.484375 -40.078125 C 77.710938 -40.015625 77.945312 -39.929688 78.1875 -39.828125 C 78.4375 -39.734375 78.578125 -39.585938 78.609375 -39.390625 C 78.578125 -39.328125 78.5625 -39.265625 78.5625 -39.203125 C 78.5625 -39.148438 78.53125 -39.097656 78.46875 -39.046875 C 78.351562 -38.898438 78.234375 -38.757812 78.109375 -38.625 C 77.984375 -38.5 77.863281 -38.378906 77.75 -38.265625 C 77.113281 -37.640625 76.441406 -37.046875 75.734375 -36.484375 C 75.035156 -35.921875 74.34375 -35.351562 73.65625 -34.78125 C 73.195312 -34.4375 72.753906 -34.070312 72.328125 -33.6875 C 71.898438 -33.300781 71.441406 -32.910156 70.953125 -32.515625 C 70.203125 -31.847656 69.429688 -31.175781 68.640625 -30.5 C 67.859375 -29.832031 67.09375 -29.171875 66.34375 -28.515625 L 65.140625 -27.390625 C 62.390625 -24.953125 59.703125 -22.445312 57.078125 -19.875 C 54.453125 -17.3125 51.820312 -14.757812 49.1875 -12.21875 C 48.445312 -11.4375 47.703125 -10.644531 46.953125 -9.84375 C 46.210938 -9.039062 45.5 -8.222656 44.8125 -7.390625 C 44.351562 -6.796875 43.878906 -6.195312 43.390625 -5.59375 C 42.898438 -4.988281 42.441406 -4.367188 42.015625 -3.734375 C 41.804688 -3.390625 41.609375 -3.050781 41.421875 -2.71875 C 41.242188 -2.394531 41.066406 -2.0625 40.890625 -1.71875 C 40.859375 -1.632812 40.820312 -1.554688 40.78125 -1.484375 C 40.738281 -1.410156 40.71875 -1.347656 40.71875 -1.296875 C 40.71875 -1.148438 40.832031 -1.035156 41.0625 -0.953125 C 41.46875 -1.035156 41.921875 -1.253906 42.421875 -1.609375 C 42.921875 -1.972656 43.34375 -2.28125 43.6875 -2.53125 C 44.40625 -3.050781 45.117188 -3.597656 45.828125 -4.171875 C 46.546875 -4.742188 47.265625 -5.273438 47.984375 -5.765625 C 48.785156 -6.304688 49.609375 -6.851562 50.453125 -7.40625 C 51.304688 -7.96875 52.144531 -8.523438 52.96875 -9.078125 C 54.144531 -9.847656 55.21875 -10.535156 56.1875 -11.140625 C 57.164062 -11.742188 58.273438 -12.398438 59.515625 -13.109375 C 60.429688 -13.628906 61.347656 -14.128906 62.265625 -14.609375 C 63.179688 -15.097656 64.082031 -15.570312 64.96875 -16.03125 C 65.71875 -16.382812 66.441406 -16.738281 67.140625 -17.09375 C 67.847656 -17.445312 68.546875 -17.785156 69.234375 -18.109375 C 70.035156 -18.503906 70.84375 -18.859375 71.65625 -19.171875 C 72.476562 -19.492188 73.289062 -19.828125 74.09375 -20.171875 C 74.40625 -20.304688 74.664062 -20.429688 74.875 -20.546875 C 75.09375 -20.660156 75.347656 -20.773438 75.640625 -20.890625 C 75.953125 -21.148438 76.257812 -21.414062 76.5625 -21.6875 C 76.863281 -21.96875 77.203125 -22.207031 77.578125 -22.40625 C 77.710938 -22.457031 77.84375 -22.523438 77.96875 -22.609375 C 78.101562 -22.703125 78.242188 -22.765625 78.390625 -22.796875 C 78.554688 -22.878906 78.726562 -22.921875 78.90625 -22.921875 C 79.132812 -22.921875 79.347656 -22.832031 79.546875 -22.65625 C 79.859375 -22.488281 80.015625 -22.21875 80.015625 -21.84375 C 80.015625 -21.757812 79.988281 -21.628906 79.9375 -21.453125 C 79.820312 -21.253906 79.660156 -21.050781 79.453125 -20.84375 C 79.253906 -20.644531 79.039062 -20.460938 78.8125 -20.296875 C 77.695312 -19.203125 76.578125 -18.109375 75.453125 -17.015625 C 74.335938 -15.929688 73.207031 -14.847656 72.0625 -13.765625 C 71.351562 -13.046875 70.675781 -12.304688 70.03125 -11.546875 C 69.382812 -10.785156 68.742188 -10.03125 68.109375 -9.28125 C 67.648438 -8.738281 67.21875 -8.203125 66.8125 -7.671875 C 66.414062 -7.140625 66.019531 -6.585938 65.625 -6.015625 C 65.070312 -5.242188 64.566406 -4.441406 64.109375 -3.609375 C 63.648438 -2.773438 63.222656 -1.898438 62.828125 -0.984375 C 62.734375 -0.753906 62.648438 -0.472656 62.578125 -0.140625 C 62.515625 0.179688 62.484375 0.5 62.484375 0.8125 C 62.484375 1.019531 62.492188 1.210938 62.515625 1.390625 C 62.546875 1.578125 62.601562 1.742188 62.6875 1.890625 C 63.007812 1.972656 63.285156 2.015625 63.515625 2.015625 C 63.941406 2.015625 64.382812 1.859375 64.84375 1.546875 C 65.476562 1.234375 66.085938 0.894531 66.671875 0.53125 C 67.253906 0.175781 67.820312 -0.226562 68.375 -0.6875 C 69.144531 -1.34375 69.921875 -2.015625 70.703125 -2.703125 C 71.492188 -3.390625 72.289062 -4.09375 73.09375 -4.8125 C 73.664062 -5.21875 74.195312 -5.628906 74.6875 -6.046875 C 75.175781 -6.460938 75.679688 -6.882812 76.203125 -7.3125 C 76.890625 -7.914062 77.585938 -8.515625 78.296875 -9.109375 C 79.015625 -9.710938 79.734375 -10.316406 80.453125 -10.921875 C 81.222656 -11.578125 82.015625 -12.195312 82.828125 -12.78125 C 83.648438 -13.375 84.445312 -14.03125 85.21875 -14.75 C 85.65625 -15.144531 86.125 -15.519531 86.625 -15.875 C 87.125 -16.238281 87.601562 -16.609375 88.0625 -16.984375 C 88.550781 -17.359375 89.050781 -17.753906 89.5625 -18.171875 C 90.082031 -18.585938 90.613281 -19.007812 91.15625 -19.4375 C 91.613281 -19.75 92.039062 -20.082031 92.4375 -20.4375 C 92.84375 -20.800781 93.273438 -21.171875 93.734375 -21.546875 C 94.222656 -21.972656 94.734375 -22.382812 95.265625 -22.78125 C 95.796875 -23.1875 96.332031 -23.59375 96.875 -24 C 97.707031 -24.625 98.664062 -25.375 99.75 -26.25 C 100.84375 -27.125 101.820312 -27.863281 102.6875 -28.46875 C 103.257812 -28.894531 103.84375 -29.328125 104.4375 -29.765625 C 105.039062 -30.210938 105.675781 -30.609375 106.34375 -30.953125 C 107.175781 -31.703125 108.078125 -32.34375 109.046875 -32.875 C 110.023438 -33.40625 110.957031 -34 111.84375 -34.65625 C 112.21875 -34.945312 112.601562 -35.195312 113 -35.40625 C 113.40625 -35.625 113.820312 -35.832031 114.25 -36.03125 C 114.90625 -36.375 115.535156 -36.742188 116.140625 -37.140625 C 116.742188 -37.546875 117.390625 -37.878906 118.078125 -38.140625 C 118.128906 -38.171875 118.191406 -38.207031 118.265625 -38.25 C 118.335938 -38.289062 118.390625 -38.328125 118.421875 -38.359375 C 119.253906 -38.785156 120.09375 -39.21875 120.9375 -39.65625 C 121.78125 -40.101562 122.644531 -40.515625 123.53125 -40.890625 C 124.019531 -41.085938 124.515625 -41.316406 125.015625 -41.578125 C 125.523438 -41.835938 126.019531 -42.066406 126.5 -42.265625 C 127.507812 -42.753906 128.519531 -43.175781 129.53125 -43.53125 C 130.550781 -43.894531 131.578125 -44.265625 132.609375 -44.640625 C 133.609375 -45.003906 134.625 -45.351562 135.65625 -45.6875 C 136.695312 -46.019531 137.71875 -46.3125 138.71875 -46.5625 C 139.519531 -46.769531 140.242188 -46.960938 140.890625 -47.140625 C 141.535156 -47.328125 142.375 -47.4375 143.40625 -47.46875 C 143.894531 -47.644531 144.394531 -47.734375 144.90625 -47.734375 C 145.425781 -47.734375 145.929688 -47.789062 146.421875 -47.90625 C 146.554688 -47.957031 146.695312 -47.988281 146.84375 -48 C 146.988281 -48.019531 147.117188 -48.03125 147.234375 -48.03125 C 147.722656 -48.03125 148.125 -48.039062 148.4375 -48.0625 C 148.75 -48.09375 149.09375 -48.109375 149.46875 -48.109375 C 149.613281 -48.109375 149.753906 -48.109375 149.890625 -48.109375 C 150.035156 -48.109375 150.195312 -48.097656 150.375 -48.078125 C 151.257812 -48.015625 152.140625 -47.914062 153.015625 -47.78125 C 153.890625 -47.65625 154.753906 -47.453125 155.609375 -47.171875 C 156.703125 -46.796875 157.695312 -46.28125 158.59375 -45.625 C 159.5 -44.96875 160.296875 -44.179688 160.984375 -43.265625 C 161.304688 -42.828125 161.566406 -42.234375 161.765625 -41.484375 C 161.960938 -40.742188 162.0625 -39.988281 162.0625 -39.21875 C 162.0625 -38.957031 162.046875 -38.695312 162.015625 -38.4375 C 161.992188 -38.1875 161.953125 -37.945312 161.890625 -37.71875 C 161.609375 -36.3125 161.25 -35.171875 160.8125 -34.296875 C 160.382812 -33.421875 159.960938 -32.71875 159.546875 -32.1875 C 159.128906 -31.65625 158.75 -31.175781 158.40625 -30.75 C 158.351562 -30.71875 158.269531 -30.703125 158.15625 -30.703125 C 157.976562 -30.703125 157.890625 -30.757812 157.890625 -30.875 C 157.890625 -30.988281 157.976562 -31.144531 158.15625 -31.34375 C 158.726562 -32.03125 159.25 -32.722656 159.71875 -33.421875 C 160.195312 -34.128906 160.59375 -34.957031 160.90625 -35.90625 C 161.21875 -36.851562 161.421875 -38.015625 161.515625 -39.390625 C 161.453125 -40.046875 161.382812 -40.628906 161.3125 -41.140625 C 161.238281 -41.660156 161.050781 -42.1875 160.75 -42.71875 C 160.445312 -43.25 159.925781 -43.859375 159.1875 -44.546875 C 158.644531 -44.953125 158.109375 -45.332031 157.578125 -45.6875 C 157.046875 -46.039062 156.390625 -46.363281 155.609375 -46.65625 C 155.066406 -46.800781 154.492188 -46.957031 153.890625 -47.125 C 153.296875 -47.300781 152.710938 -47.375 152.140625 -47.34375 C 151.472656 -47.488281 150.78125 -47.5625 150.0625 -47.5625 C 149.925781 -47.5625 149.769531 -47.5625 149.59375 -47.5625 C 149.425781 -47.5625 149.269531 -47.546875 149.125 -47.515625 C 148.976562 -47.484375 148.691406 -47.472656 148.265625 -47.484375 C 147.835938 -47.503906 147.492188 -47.515625 147.234375 -47.515625 C 146.773438 -47.429688 146.363281 -47.375 146 -47.34375 C 145.644531 -47.3125 145.265625 -47.28125 144.859375 -47.25 C 143.597656 -47.132812 142.585938 -46.96875 141.828125 -46.75 C 141.078125 -46.539062 140.238281 -46.335938 139.3125 -46.140625 C 137.96875 -45.828125 136.632812 -45.453125 135.3125 -45.015625 C 134 -44.585938 132.695312 -44.117188 131.40625 -43.609375 C 129.570312 -42.890625 127.742188 -42.117188 125.921875 -41.296875 C 124.097656 -40.484375 122.300781 -39.632812 120.53125 -38.75 L 118.546875 -37.71875 C 118.285156 -37.59375 118.035156 -37.472656 117.796875 -37.359375 C 117.554688 -37.242188 117.320312 -37.070312 117.09375 -36.84375 C 117 -36.757812 116.890625 -36.6875 116.765625 -36.625 C 116.640625 -36.570312 116.519531 -36.519531 116.40625 -36.46875 C 115.769531 -36.144531 115.144531 -35.796875 114.53125 -35.421875 C 113.914062 -35.054688 113.304688 -34.671875 112.703125 -34.265625 C 112.503906 -34.148438 112.3125 -34.03125 112.125 -33.90625 C 111.9375 -33.78125 111.742188 -33.671875 111.546875 -33.578125 C 110.910156 -33.296875 110.3125 -32.945312 109.75 -32.53125 C 109.195312 -32.113281 108.632812 -31.71875 108.0625 -31.34375 C 107.945312 -31.257812 107.832031 -31.179688 107.71875 -31.109375 C 107.601562 -31.035156 107.488281 -30.957031 107.375 -30.875 C 106.132812 -30.070312 104.957031 -29.269531 103.84375 -28.46875 C 102.726562 -27.664062 101.582031 -26.816406 100.40625 -25.921875 C 99.882812 -25.523438 99.351562 -25.132812 98.8125 -24.75 C 98.269531 -24.363281 97.753906 -23.96875 97.265625 -23.5625 C 96.859375 -23.28125 96.445312 -22.957031 96.03125 -22.59375 C 95.625 -22.238281 95.203125 -21.890625 94.765625 -21.546875 C 94.628906 -21.429688 94.457031 -21.289062 94.25 -21.125 C 94.050781 -20.96875 93.851562 -20.820312 93.65625 -20.6875 C 93.019531 -20.195312 92.382812 -19.691406 91.75 -19.171875 C 91.125 -18.660156 90.484375 -18.160156 89.828125 -17.671875 C 89.367188 -17.296875 88.914062 -16.9375 88.46875 -16.59375 C 88.03125 -16.25 87.59375 -15.921875 87.15625 -15.609375 C 86.695312 -15.234375 86.226562 -14.851562 85.75 -14.46875 C 85.28125 -14.082031 84.804688 -13.71875 84.328125 -13.375 C 83.890625 -13 83.441406 -12.628906 82.984375 -12.265625 C 82.523438 -11.910156 82.066406 -11.5625 81.609375 -11.21875 L 79.296875 -9.28125 C 78.628906 -8.769531 77.976562 -8.238281 77.34375 -7.6875 C 76.71875 -7.144531 76.09375 -6.601562 75.46875 -6.0625 C 75.007812 -5.6875 74.554688 -5.316406 74.109375 -4.953125 C 73.660156 -4.597656 73.222656 -4.238281 72.796875 -3.875 C 72.535156 -3.695312 72.320312 -3.523438 72.15625 -3.359375 C 71.207031 -2.554688 70.257812 -1.75 69.3125 -0.9375 C 68.363281 -0.132812 67.347656 0.609375 66.265625 1.296875 C 65.890625 1.523438 65.507812 1.726562 65.125 1.90625 C 64.738281 2.09375 64.328125 2.273438 63.890625 2.453125 C 63.578125 2.566406 63.289062 2.625 63.03125 2.625 Z M 63.03125 2.625 "/></g></g></g><g fill="#dddaba" fill-opacity="1"><g transform="translate(278.236833, 214.934239)"><g><path d="M 6.875 -1.59375 C 6.25 -1.59375 5.691406 -1.75 5.203125 -2.0625 C 4.566406 -2.601562 4.25 -3.304688 4.25 -4.171875 C 4.25 -4.335938 4.269531 -4.515625 4.3125 -4.703125 C 4.363281 -4.890625 4.398438 -5.082031 4.421875 -5.28125 C 4.484375 -5.519531 4.5625 -5.765625 4.65625 -6.015625 C 4.757812 -6.273438 4.851562 -6.503906 4.9375 -6.703125 L 5.203125 -7.09375 C 5.347656 -7.320312 5.707031 -7.828125 6.28125 -8.609375 C 6.851562 -9.398438 7.453125 -10.171875 8.078125 -10.921875 C 7.335938 -10.378906 6.644531 -9.847656 6 -9.328125 C 5.351562 -8.816406 4.65625 -8.273438 3.90625 -7.703125 C 3.5625 -7.441406 3.289062 -7.222656 3.09375 -7.046875 C 2.894531 -6.878906 2.625 -6.679688 2.28125 -6.453125 C 1.757812 -6.078125 1.320312 -5.785156 0.96875 -5.578125 C 0.613281 -5.378906 0.273438 -5.210938 -0.046875 -5.078125 C -0.242188 -5.015625 -0.441406 -4.953125 -0.640625 -4.890625 C -0.847656 -4.835938 -1.066406 -4.8125 -1.296875 -4.8125 C -1.378906 -4.8125 -1.460938 -4.816406 -1.546875 -4.828125 C -1.628906 -4.847656 -1.726562 -4.875 -1.84375 -4.90625 C -2.101562 -4.988281 -2.296875 -5.164062 -2.421875 -5.4375 C -2.554688 -5.707031 -2.625 -6.015625 -2.625 -6.359375 C -2.625 -6.503906 -2.613281 -6.640625 -2.59375 -6.765625 C -2.582031 -6.898438 -2.5625 -7.023438 -2.53125 -7.140625 C -2.28125 -8.171875 -1.796875 -9.113281 -1.078125 -9.96875 C -0.503906 -10.664062 0.0820312 -11.328125 0.6875 -11.953125 C 1.289062 -12.585938 1.960938 -13.144531 2.703125 -13.625 C 3.222656 -13.96875 3.757812 -14.253906 4.3125 -14.484375 C 4.875 -14.710938 5.441406 -14.898438 6.015625 -15.046875 C 6.160156 -15.109375 6.304688 -15.140625 6.453125 -15.140625 C 6.597656 -15.140625 6.738281 -15.140625 6.875 -15.140625 C 7.507812 -15.140625 8.097656 -14.992188 8.640625 -14.703125 C 8.898438 -14.535156 9.1875 -14.3125 9.5 -14.03125 C 9.8125 -13.757812 10.039062 -13.425781 10.1875 -13.03125 L 10.140625 -12.984375 C 10.546875 -13.296875 10.941406 -13.617188 11.328125 -13.953125 C 11.710938 -14.285156 12.09375 -14.59375 12.46875 -14.875 C 12.757812 -15.070312 13.046875 -15.25 13.328125 -15.40625 C 13.617188 -15.570312 13.945312 -15.625 14.3125 -15.5625 C 14.65625 -15.414062 14.828125 -15.144531 14.828125 -14.75 C 14.828125 -14.6875 14.828125 -14.613281 14.828125 -14.53125 C 14.828125 -14.445312 14.816406 -14.375 14.796875 -14.3125 C 14.648438 -14.03125 14.441406 -13.78125 14.171875 -13.5625 C 13.898438 -13.351562 13.648438 -13.132812 13.421875 -12.90625 C 13.128906 -12.644531 12.835938 -12.390625 12.546875 -12.140625 C 12.265625 -11.898438 11.96875 -11.664062 11.65625 -11.4375 C 10.988281 -10.914062 10.375 -10.382812 9.8125 -9.84375 C 9.257812 -9.300781 8.679688 -8.703125 8.078125 -8.046875 C 7.847656 -7.785156 7.65625 -7.578125 7.5 -7.421875 C 7.34375 -7.265625 7.207031 -7.113281 7.09375 -6.96875 C 7.007812 -6.882812 6.929688 -6.796875 6.859375 -6.703125 C 6.785156 -6.617188 6.722656 -6.535156 6.671875 -6.453125 C 6.554688 -6.335938 6.453125 -6.203125 6.359375 -6.046875 C 6.273438 -5.890625 6.175781 -5.722656 6.0625 -5.546875 C 5.914062 -5.347656 5.785156 -5.109375 5.671875 -4.828125 C 5.554688 -4.554688 5.472656 -4.296875 5.421875 -4.046875 C 5.328125 -3.835938 5.28125 -3.59375 5.28125 -3.3125 C 5.28125 -2.9375 5.398438 -2.632812 5.640625 -2.40625 C 5.804688 -2.257812 6.007812 -2.15625 6.25 -2.09375 C 6.5 -2.039062 6.738281 -2.015625 6.96875 -2.015625 C 7.28125 -2.015625 7.570312 -2.039062 7.84375 -2.09375 C 8.113281 -2.15625 8.351562 -2.234375 8.5625 -2.328125 C 9.1875 -2.554688 9.6875 -2.769531 10.0625 -2.96875 C 10.4375 -3.164062 10.96875 -3.453125 11.65625 -3.828125 C 12.03125 -3.992188 12.304688 -4.132812 12.484375 -4.25 C 12.671875 -4.363281 12.894531 -4.492188 13.15625 -4.640625 C 13.382812 -4.785156 13.726562 -4.992188 14.1875 -5.265625 C 14.644531 -5.535156 15.140625 -5.835938 15.671875 -6.171875 C 16.203125 -6.503906 16.679688 -6.8125 17.109375 -7.09375 C 17.546875 -7.382812 17.847656 -7.585938 18.015625 -7.703125 C 18.585938 -8.097656 19.1875 -8.523438 19.8125 -8.984375 C 20.445312 -9.441406 21.082031 -9.898438 21.71875 -10.359375 C 21.863281 -10.472656 22.019531 -10.59375 22.1875 -10.71875 C 22.363281 -10.851562 22.507812 -10.90625 22.625 -10.875 C 22.757812 -10.757812 22.785156 -10.628906 22.703125 -10.484375 L 22.3125 -10.1875 C 21.6875 -9.726562 20.976562 -9.210938 20.1875 -8.640625 C 19.394531 -8.066406 18.613281 -7.507812 17.84375 -6.96875 C 17.070312 -6.425781 16.382812 -5.96875 15.78125 -5.59375 C 14.914062 -5.070312 14.039062 -4.566406 13.15625 -4.078125 C 12.269531 -3.597656 11.335938 -3.097656 10.359375 -2.578125 C 10.160156 -2.492188 9.96875 -2.398438 9.78125 -2.296875 C 9.59375 -2.203125 9.382812 -2.125 9.15625 -2.0625 C 8.8125 -1.945312 8.445312 -1.835938 8.0625 -1.734375 C 7.675781 -1.640625 7.28125 -1.59375 6.875 -1.59375 Z M -1.03125 -5.28125 C -0.945312 -5.28125 -0.789062 -5.3125 -0.5625 -5.375 C -0.0078125 -5.570312 0.554688 -5.859375 1.140625 -6.234375 C 1.722656 -6.609375 2.242188 -6.984375 2.703125 -7.359375 C 3.421875 -7.929688 4.085938 -8.453125 4.703125 -8.921875 C 5.328125 -9.390625 5.925781 -9.84375 6.5 -10.28125 C 6.976562 -10.625 7.46875 -10.976562 7.96875 -11.34375 C 8.476562 -11.71875 9.003906 -12.132812 9.546875 -12.59375 C 9.429688 -12.820312 9.15625 -12.988281 8.71875 -13.09375 C 8.289062 -13.195312 7.992188 -13.21875 7.828125 -13.15625 C 7.335938 -13.070312 6.847656 -12.960938 6.359375 -12.828125 C 5.878906 -12.703125 5.40625 -12.507812 4.9375 -12.25 C 3.820312 -11.65625 2.753906 -10.867188 1.734375 -9.890625 C 0.722656 -8.910156 -0.113281 -8.050781 -0.78125 -7.3125 C -1.0625 -7.019531 -1.257812 -6.742188 -1.375 -6.484375 C -1.488281 -6.234375 -1.546875 -6.007812 -1.546875 -5.8125 C -1.546875 -5.457031 -1.375 -5.28125 -1.03125 -5.28125 Z M -1.03125 -5.28125 "/></g></g></g><g fill="#dddaba" fill-opacity="1"><g transform="translate(299.863836, 214.934239)"><g><path d="M 40.984375 -38.1875 C 41.117188 -38.070312 41.222656 -37.941406 41.296875 -37.796875 C 41.367188 -37.648438 41.421875 -37.519531 41.453125 -37.40625 C 41.421875 -36.4375 41.160156 -35.609375 40.671875 -34.921875 C 40.191406 -34.234375 39.664062 -33.585938 39.09375 -32.984375 C 38.65625 -32.523438 38.191406 -32.097656 37.703125 -31.703125 C 37.222656 -31.316406 36.765625 -30.910156 36.328125 -30.484375 C 35.734375 -29.992188 35.269531 -29.597656 34.9375 -29.296875 C 34.601562 -29.003906 34.140625 -28.613281 33.546875 -28.125 C 33.335938 -27.925781 33.03125 -27.710938 32.625 -27.484375 C 32.226562 -27.253906 31.914062 -27.035156 31.6875 -26.828125 C 31.257812 -26.515625 30.816406 -26.222656 30.359375 -25.953125 C 29.898438 -25.679688 29.441406 -25.398438 28.984375 -25.109375 L 27.90625 -24.421875 C 27.101562 -23.992188 26.28125 -23.585938 25.4375 -23.203125 C 24.59375 -22.816406 23.753906 -22.421875 22.921875 -22.015625 C 21.773438 -21.523438 20.597656 -21.113281 19.390625 -20.78125 C 18.191406 -20.457031 17.003906 -20.125 15.828125 -19.78125 C 15.535156 -19.71875 15.257812 -19.644531 15 -19.5625 C 14.75 -19.476562 14.476562 -19.40625 14.1875 -19.34375 C 13.695312 -19.226562 13.191406 -19.117188 12.671875 -19.015625 C 12.160156 -18.921875 11.664062 -18.847656 11.1875 -18.796875 C 10.519531 -18.703125 9.941406 -18.441406 9.453125 -18.015625 C 8.398438 -17.128906 7.378906 -16.203125 6.390625 -15.234375 C 5.398438 -14.273438 4.445312 -13.28125 3.53125 -12.25 C 3.039062 -11.707031 2.535156 -11.160156 2.015625 -10.609375 C 1.503906 -10.066406 1.019531 -9.5 0.5625 -8.90625 C 0.269531 -8.53125 -0.015625 -8.175781 -0.296875 -7.84375 C -0.585938 -7.519531 -0.863281 -7.15625 -1.125 -6.75 C -1.894531 -5.570312 -2.4375 -4.296875 -2.75 -2.921875 C -2.71875 -2.609375 -2.625 -2.335938 -2.46875 -2.109375 C -2.3125 -1.878906 -2.132812 -1.664062 -1.9375 -1.46875 C -1.53125 -1.144531 -1.097656 -0.984375 -0.640625 -0.984375 C -0.472656 -0.984375 -0.347656 -1 -0.265625 -1.03125 C 0.660156 -1.207031 1.554688 -1.4375 2.421875 -1.71875 C 3.296875 -2.007812 4.164062 -2.328125 5.03125 -2.671875 C 6.03125 -3.097656 7.007812 -3.546875 7.96875 -4.015625 C 8.9375 -4.492188 9.90625 -4.988281 10.875 -5.5 C 11.476562 -5.820312 12.066406 -6.175781 12.640625 -6.5625 C 13.210938 -6.945312 13.769531 -7.335938 14.3125 -7.734375 C 14.914062 -8.140625 15.519531 -8.582031 16.125 -9.0625 C 16.726562 -9.550781 17.332031 -9.984375 17.9375 -10.359375 C 18.070312 -10.441406 18.191406 -10.523438 18.296875 -10.609375 C 18.398438 -10.703125 18.519531 -10.789062 18.65625 -10.875 C 18.75 -10.875 18.835938 -10.789062 18.921875 -10.625 C 18.921875 -10.507812 18.816406 -10.378906 18.609375 -10.234375 C 18.410156 -10.085938 18.253906 -9.972656 18.140625 -9.890625 C 16.992188 -9.023438 15.867188 -8.191406 14.765625 -7.390625 C 13.660156 -6.585938 12.476562 -5.816406 11.21875 -5.078125 C 10.25 -4.523438 9.253906 -4.015625 8.234375 -3.546875 C 7.210938 -3.078125 6.203125 -2.613281 5.203125 -2.15625 C 4.398438 -1.8125 3.578125 -1.492188 2.734375 -1.203125 C 1.890625 -0.921875 1.035156 -0.691406 0.171875 -0.515625 C 0.0234375 -0.484375 -0.125 -0.460938 -0.28125 -0.453125 C -0.4375 -0.441406 -0.585938 -0.4375 -0.734375 -0.4375 C -1.128906 -0.4375 -1.5 -0.492188 -1.84375 -0.609375 C -2.53125 -0.835938 -3.046875 -1.210938 -3.390625 -1.734375 C -3.734375 -2.265625 -3.90625 -2.847656 -3.90625 -3.484375 C -3.90625 -3.765625 -3.863281 -4.050781 -3.78125 -4.34375 C -3.207031 -6.632812 -2.191406 -8.65625 -0.734375 -10.40625 C -0.328125 -10.925781 0.0859375 -11.4375 0.515625 -11.9375 C 0.941406 -12.4375 1.375 -12.941406 1.8125 -13.453125 C 1.976562 -13.628906 2.09375 -13.757812 2.15625 -13.84375 L 6.0625 -17.96875 C 6.09375 -18.03125 6.175781 -18.109375 6.3125 -18.203125 C 6.457031 -18.304688 6.546875 -18.390625 6.578125 -18.453125 L 8.25 -19.953125 C 8.882812 -20.578125 9.535156 -21.171875 10.203125 -21.734375 C 10.878906 -22.296875 11.550781 -22.863281 12.21875 -23.4375 C 12.925781 -24.039062 13.648438 -24.632812 14.390625 -25.21875 C 15.140625 -25.800781 15.890625 -26.382812 16.640625 -26.96875 C 17.503906 -27.625 18.394531 -28.25 19.3125 -28.84375 C 20.226562 -29.445312 21.144531 -30.050781 22.0625 -30.65625 C 22.34375 -30.851562 22.632812 -31.03125 22.9375 -31.1875 C 23.238281 -31.351562 23.535156 -31.535156 23.828125 -31.734375 C 24.648438 -32.222656 25.460938 -32.6875 26.265625 -33.125 C 27.078125 -33.570312 27.867188 -34.007812 28.640625 -34.4375 C 29.867188 -35.125 31.082031 -35.753906 32.28125 -36.328125 C 33.488281 -36.898438 34.710938 -37.429688 35.953125 -37.921875 C 36.691406 -38.179688 37.4375 -38.398438 38.1875 -38.578125 C 38.351562 -38.597656 38.519531 -38.613281 38.6875 -38.625 C 38.863281 -38.644531 39.039062 -38.65625 39.21875 -38.65625 C 39.84375 -38.65625 40.429688 -38.5 40.984375 -38.1875 Z M 40.5 -35.953125 C 40.5625 -36.066406 40.640625 -36.238281 40.734375 -36.46875 C 40.835938 -36.695312 40.832031 -36.910156 40.71875 -37.109375 C 40.550781 -37.160156 40.421875 -37.1875 40.328125 -37.1875 C 40.015625 -37.1875 39.664062 -37.109375 39.28125 -36.953125 C 38.894531 -36.796875 38.585938 -36.691406 38.359375 -36.640625 C 37.898438 -36.460938 37.425781 -36.28125 36.9375 -36.09375 C 36.445312 -35.90625 35.972656 -35.695312 35.515625 -35.46875 C 34.597656 -35.007812 33.6875 -34.535156 32.78125 -34.046875 C 31.882812 -33.566406 30.976562 -33.082031 30.0625 -32.59375 C 29.195312 -32.132812 28.347656 -31.660156 27.515625 -31.171875 C 26.679688 -30.679688 25.851562 -30.195312 25.03125 -29.71875 C 24.570312 -29.457031 24.117188 -29.175781 23.671875 -28.875 C 23.222656 -28.570312 22.769531 -28.28125 22.3125 -28 C 21.882812 -27.707031 21.453125 -27.414062 21.015625 -27.125 C 20.585938 -26.84375 20.175781 -26.554688 19.78125 -26.265625 C 19.007812 -25.722656 18.242188 -25.171875 17.484375 -24.609375 C 16.722656 -24.054688 15.96875 -23.476562 15.21875 -22.875 C 14.726562 -22.476562 14.222656 -22.078125 13.703125 -21.671875 C 13.191406 -21.265625 12.695312 -20.863281 12.21875 -20.46875 C 12.070312 -20.351562 11.921875 -20.222656 11.765625 -20.078125 C 11.609375 -19.929688 11.472656 -19.742188 11.359375 -19.515625 C 11.640625 -19.515625 11.914062 -19.53125 12.1875 -19.5625 C 12.457031 -19.59375 12.738281 -19.632812 13.03125 -19.6875 C 14.0625 -19.863281 15.078125 -20.078125 16.078125 -20.328125 C 17.085938 -20.585938 18.109375 -20.890625 19.140625 -21.234375 C 19.335938 -21.296875 19.535156 -21.363281 19.734375 -21.4375 C 19.929688 -21.507812 20.132812 -21.570312 20.34375 -21.625 C 21.144531 -21.914062 21.9375 -22.238281 22.71875 -22.59375 C 23.507812 -22.957031 24.28125 -23.3125 25.03125 -23.65625 C 25.945312 -24.050781 26.796875 -24.476562 27.578125 -24.9375 C 28.367188 -25.394531 29.222656 -25.941406 30.140625 -26.578125 C 30.203125 -26.597656 30.257812 -26.628906 30.3125 -26.671875 C 30.375 -26.722656 30.429688 -26.757812 30.484375 -26.78125 C 31.234375 -27.25 32.015625 -27.796875 32.828125 -28.421875 C 33.648438 -29.054688 34.414062 -29.6875 35.125 -30.3125 C 35.726562 -30.851562 36.320312 -31.367188 36.90625 -31.859375 C 37.5 -32.347656 38.066406 -32.863281 38.609375 -33.40625 C 38.953125 -33.75 39.300781 -34.144531 39.65625 -34.59375 C 40.019531 -35.039062 40.300781 -35.492188 40.5 -35.953125 Z M 40.5 -35.953125 "/></g></g></g><g fill="#dddaba" fill-opacity="1"><g transform="translate(317.707188, 214.934239)"><g><path d="M 40.984375 -38.1875 C 41.117188 -38.070312 41.222656 -37.941406 41.296875 -37.796875 C 41.367188 -37.648438 41.421875 -37.519531 41.453125 -37.40625 C 41.421875 -36.4375 41.160156 -35.609375 40.671875 -34.921875 C 40.191406 -34.234375 39.664062 -33.585938 39.09375 -32.984375 C 38.65625 -32.523438 38.191406 -32.097656 37.703125 -31.703125 C 37.222656 -31.316406 36.765625 -30.910156 36.328125 -30.484375 C 35.734375 -29.992188 35.269531 -29.597656 34.9375 -29.296875 C 34.601562 -29.003906 34.140625 -28.613281 33.546875 -28.125 C 33.335938 -27.925781 33.03125 -27.710938 32.625 -27.484375 C 32.226562 -27.253906 31.914062 -27.035156 31.6875 -26.828125 C 31.257812 -26.515625 30.816406 -26.222656 30.359375 -25.953125 C 29.898438 -25.679688 29.441406 -25.398438 28.984375 -25.109375 L 27.90625 -24.421875 C 27.101562 -23.992188 26.28125 -23.585938 25.4375 -23.203125 C 24.59375 -22.816406 23.753906 -22.421875 22.921875 -22.015625 C 21.773438 -21.523438 20.597656 -21.113281 19.390625 -20.78125 C 18.191406 -20.457031 17.003906 -20.125 15.828125 -19.78125 C 15.535156 -19.71875 15.257812 -19.644531 15 -19.5625 C 14.75 -19.476562 14.476562 -19.40625 14.1875 -19.34375 C 13.695312 -19.226562 13.191406 -19.117188 12.671875 -19.015625 C 12.160156 -18.921875 11.664062 -18.847656 11.1875 -18.796875 C 10.519531 -18.703125 9.941406 -18.441406 9.453125 -18.015625 C 8.398438 -17.128906 7.378906 -16.203125 6.390625 -15.234375 C 5.398438 -14.273438 4.445312 -13.28125 3.53125 -12.25 C 3.039062 -11.707031 2.535156 -11.160156 2.015625 -10.609375 C 1.503906 -10.066406 1.019531 -9.5 0.5625 -8.90625 C 0.269531 -8.53125 -0.015625 -8.175781 -0.296875 -7.84375 C -0.585938 -7.519531 -0.863281 -7.15625 -1.125 -6.75 C -1.894531 -5.570312 -2.4375 -4.296875 -2.75 -2.921875 C -2.71875 -2.609375 -2.625 -2.335938 -2.46875 -2.109375 C -2.3125 -1.878906 -2.132812 -1.664062 -1.9375 -1.46875 C -1.53125 -1.144531 -1.097656 -0.984375 -0.640625 -0.984375 C -0.472656 -0.984375 -0.347656 -1 -0.265625 -1.03125 C 0.660156 -1.207031 1.554688 -1.4375 2.421875 -1.71875 C 3.296875 -2.007812 4.164062 -2.328125 5.03125 -2.671875 C 6.03125 -3.097656 7.007812 -3.546875 7.96875 -4.015625 C 8.9375 -4.492188 9.90625 -4.988281 10.875 -5.5 C 11.476562 -5.820312 12.066406 -6.175781 12.640625 -6.5625 C 13.210938 -6.945312 13.769531 -7.335938 14.3125 -7.734375 C 14.914062 -8.140625 15.519531 -8.582031 16.125 -9.0625 C 16.726562 -9.550781 17.332031 -9.984375 17.9375 -10.359375 C 18.070312 -10.441406 18.191406 -10.523438 18.296875 -10.609375 C 18.398438 -10.703125 18.519531 -10.789062 18.65625 -10.875 C 18.75 -10.875 18.835938 -10.789062 18.921875 -10.625 C 18.921875 -10.507812 18.816406 -10.378906 18.609375 -10.234375 C 18.410156 -10.085938 18.253906 -9.972656 18.140625 -9.890625 C 16.992188 -9.023438 15.867188 -8.191406 14.765625 -7.390625 C 13.660156 -6.585938 12.476562 -5.816406 11.21875 -5.078125 C 10.25 -4.523438 9.253906 -4.015625 8.234375 -3.546875 C 7.210938 -3.078125 6.203125 -2.613281 5.203125 -2.15625 C 4.398438 -1.8125 3.578125 -1.492188 2.734375 -1.203125 C 1.890625 -0.921875 1.035156 -0.691406 0.171875 -0.515625 C 0.0234375 -0.484375 -0.125 -0.460938 -0.28125 -0.453125 C -0.4375 -0.441406 -0.585938 -0.4375 -0.734375 -0.4375 C -1.128906 -0.4375 -1.5 -0.492188 -1.84375 -0.609375 C -2.53125 -0.835938 -3.046875 -1.210938 -3.390625 -1.734375 C -3.734375 -2.265625 -3.90625 -2.847656 -3.90625 -3.484375 C -3.90625 -3.765625 -3.863281 -4.050781 -3.78125 -4.34375 C -3.207031 -6.632812 -2.191406 -8.65625 -0.734375 -10.40625 C -0.328125 -10.925781 0.0859375 -11.4375 0.515625 -11.9375 C 0.941406 -12.4375 1.375 -12.941406 1.8125 -13.453125 C 1.976562 -13.628906 2.09375 -13.757812 2.15625 -13.84375 L 6.0625 -17.96875 C 6.09375 -18.03125 6.175781 -18.109375 6.3125 -18.203125 C 6.457031 -18.304688 6.546875 -18.390625 6.578125 -18.453125 L 8.25 -19.953125 C 8.882812 -20.578125 9.535156 -21.171875 10.203125 -21.734375 C 10.878906 -22.296875 11.550781 -22.863281 12.21875 -23.4375 C 12.925781 -24.039062 13.648438 -24.632812 14.390625 -25.21875 C 15.140625 -25.800781 15.890625 -26.382812 16.640625 -26.96875 C 17.503906 -27.625 18.394531 -28.25 19.3125 -28.84375 C 20.226562 -29.445312 21.144531 -30.050781 22.0625 -30.65625 C 22.34375 -30.851562 22.632812 -31.03125 22.9375 -31.1875 C 23.238281 -31.351562 23.535156 -31.535156 23.828125 -31.734375 C 24.648438 -32.222656 25.460938 -32.6875 26.265625 -33.125 C 27.078125 -33.570312 27.867188 -34.007812 28.640625 -34.4375 C 29.867188 -35.125 31.082031 -35.753906 32.28125 -36.328125 C 33.488281 -36.898438 34.710938 -37.429688 35.953125 -37.921875 C 36.691406 -38.179688 37.4375 -38.398438 38.1875 -38.578125 C 38.351562 -38.597656 38.519531 -38.613281 38.6875 -38.625 C 38.863281 -38.644531 39.039062 -38.65625 39.21875 -38.65625 C 39.84375 -38.65625 40.429688 -38.5 40.984375 -38.1875 Z M 40.5 -35.953125 C 40.5625 -36.066406 40.640625 -36.238281 40.734375 -36.46875 C 40.835938 -36.695312 40.832031 -36.910156 40.71875 -37.109375 C 40.550781 -37.160156 40.421875 -37.1875 40.328125 -37.1875 C 40.015625 -37.1875 39.664062 -37.109375 39.28125 -36.953125 C 38.894531 -36.796875 38.585938 -36.691406 38.359375 -36.640625 C 37.898438 -36.460938 37.425781 -36.28125 36.9375 -36.09375 C 36.445312 -35.90625 35.972656 -35.695312 35.515625 -35.46875 C 34.597656 -35.007812 33.6875 -34.535156 32.78125 -34.046875 C 31.882812 -33.566406 30.976562 -33.082031 30.0625 -32.59375 C 29.195312 -32.132812 28.347656 -31.660156 27.515625 -31.171875 C 26.679688 -30.679688 25.851562 -30.195312 25.03125 -29.71875 C 24.570312 -29.457031 24.117188 -29.175781 23.671875 -28.875 C 23.222656 -28.570312 22.769531 -28.28125 22.3125 -28 C 21.882812 -27.707031 21.453125 -27.414062 21.015625 -27.125 C 20.585938 -26.84375 20.175781 -26.554688 19.78125 -26.265625 C 19.007812 -25.722656 18.242188 -25.171875 17.484375 -24.609375 C 16.722656 -24.054688 15.96875 -23.476562 15.21875 -22.875 C 14.726562 -22.476562 14.222656 -22.078125 13.703125 -21.671875 C 13.191406 -21.265625 12.695312 -20.863281 12.21875 -20.46875 C 12.070312 -20.351562 11.921875 -20.222656 11.765625 -20.078125 C 11.609375 -19.929688 11.472656 -19.742188 11.359375 -19.515625 C 11.640625 -19.515625 11.914062 -19.53125 12.1875 -19.5625 C 12.457031 -19.59375 12.738281 -19.632812 13.03125 -19.6875 C 14.0625 -19.863281 15.078125 -20.078125 16.078125 -20.328125 C 17.085938 -20.585938 18.109375 -20.890625 19.140625 -21.234375 C 19.335938 -21.296875 19.535156 -21.363281 19.734375 -21.4375 C 19.929688 -21.507812 20.132812 -21.570312 20.34375 -21.625 C 21.144531 -21.914062 21.9375 -22.238281 22.71875 -22.59375 C 23.507812 -22.957031 24.28125 -23.3125 25.03125 -23.65625 C 25.945312 -24.050781 26.796875 -24.476562 27.578125 -24.9375 C 28.367188 -25.394531 29.222656 -25.941406 30.140625 -26.578125 C 30.203125 -26.597656 30.257812 -26.628906 30.3125 -26.671875 C 30.375 -26.722656 30.429688 -26.757812 30.484375 -26.78125 C 31.234375 -27.25 32.015625 -27.796875 32.828125 -28.421875 C 33.648438 -29.054688 34.414062 -29.6875 35.125 -30.3125 C 35.726562 -30.851562 36.320312 -31.367188 36.90625 -31.859375 C 37.5 -32.347656 38.066406 -32.863281 38.609375 -33.40625 C 38.953125 -33.75 39.300781 -34.144531 39.65625 -34.59375 C 40.019531 -35.039062 40.300781 -35.492188 40.5 -35.953125 Z M 40.5 -35.953125 "/></g></g></g><g mask="url(#e0945c8689)"><g transform="matrix(1, 0, 0, 1, 260, 145)"><g clip-path="url(#1b1ff951c3)"><g fill="#dddaba" fill-opacity="1"><g transform="translate(0.207624, 14.149843)"><g><path d="M 1.4375 -10.71875 L 6.953125 -10.71875 L 6.953125 -9.6875 L 2.5625 -9.6875 L 2.5625 -5.765625 L 5.921875 -5.765625 L 5.921875 -4.71875 L 2.5625 -4.71875 L 2.5625 0 L 1.4375 0 Z M 1.4375 -10.71875 "/></g></g></g><g fill="#dddaba" fill-opacity="1"><g transform="translate(8.717878, 14.149843)"><g><path d="M 4.015625 0.15625 C 3.285156 0.15625 2.613281 -0.015625 2 -0.359375 C 1.394531 -0.703125 0.890625 -1.203125 0.484375 -1.859375 L 1.34375 -2.5625 C 2.09375 -1.425781 2.988281 -0.859375 4.03125 -0.859375 C 4.65625 -0.859375 5.160156 -1.03125 5.546875 -1.375 C 5.929688 -1.71875 6.125 -2.171875 6.125 -2.734375 C 6.125 -3.222656 5.953125 -3.644531 5.609375 -4 C 5.265625 -4.351562 4.707031 -4.679688 3.9375 -4.984375 C 2.96875 -5.359375 2.265625 -5.796875 1.828125 -6.296875 C 1.398438 -6.804688 1.1875 -7.40625 1.1875 -8.09375 C 1.1875 -8.507812 1.253906 -8.890625 1.390625 -9.234375 C 1.523438 -9.578125 1.722656 -9.867188 1.984375 -10.109375 C 2.242188 -10.359375 2.550781 -10.546875 2.90625 -10.671875 C 3.257812 -10.804688 3.65625 -10.875 4.09375 -10.875 C 5.320312 -10.875 6.335938 -10.332031 7.140625 -9.25 L 6.265625 -8.546875 C 5.953125 -8.992188 5.613281 -9.320312 5.25 -9.53125 C 4.894531 -9.738281 4.503906 -9.84375 4.078125 -9.84375 C 3.535156 -9.84375 3.101562 -9.691406 2.78125 -9.390625 C 2.457031 -9.085938 2.296875 -8.6875 2.296875 -8.1875 C 2.296875 -7.707031 2.457031 -7.300781 2.78125 -6.96875 C 3.113281 -6.632812 3.660156 -6.316406 4.421875 -6.015625 C 5.390625 -5.640625 6.101562 -5.191406 6.5625 -4.671875 C 7.019531 -4.160156 7.25 -3.546875 7.25 -2.828125 C 7.25 -2.390625 7.164062 -1.988281 7 -1.625 C 6.84375 -1.257812 6.617188 -0.941406 6.328125 -0.671875 C 6.046875 -0.398438 5.707031 -0.191406 5.3125 -0.046875 C 4.914062 0.0859375 4.484375 0.15625 4.015625 0.15625 Z M 4.015625 0.15625 "/></g></g></g><g fill="#dddaba" fill-opacity="1"><g transform="translate(17.676019, 14.149843)"><g><path d="M 1.4375 -10.71875 L 4 -10.71875 C 4.53125 -10.71875 5.019531 -10.632812 5.46875 -10.46875 C 5.925781 -10.3125 6.316406 -10.085938 6.640625 -9.796875 C 6.972656 -9.515625 7.226562 -9.175781 7.40625 -8.78125 C 7.59375 -8.382812 7.6875 -7.953125 7.6875 -7.484375 C 7.6875 -7.015625 7.59375 -6.582031 7.40625 -6.1875 C 7.226562 -5.789062 6.972656 -5.445312 6.640625 -5.15625 C 6.316406 -4.875 5.925781 -4.648438 5.46875 -4.484375 C 5.019531 -4.328125 4.53125 -4.25 4 -4.25 L 2.5625 -4.25 L 2.5625 0 L 1.4375 0 Z M 4 -5.296875 C 4.769531 -5.296875 5.390625 -5.492188 5.859375 -5.890625 C 6.328125 -6.296875 6.5625 -6.832031 6.5625 -7.5 C 6.5625 -8.164062 6.328125 -8.695312 5.859375 -9.09375 C 5.390625 -9.488281 4.769531 -9.6875 4 -9.6875 L 2.5625 -9.6875 L 2.5625 -5.296875 Z M 4 -5.296875 "/></g></g></g><g fill="#dddaba" fill-opacity="1"><g transform="translate(26.986076, 14.149843)"><g><path d="M 4.5625 -11.046875 L 4.875 -11.046875 L 8.953125 0 L 7.734375 0 L 6.71875 -2.8125 L 2.65625 -2.8125 L 1.640625 0 L 0.484375 0 Z M 6.359375 -3.859375 L 4.6875 -8.5 L 3.03125 -3.859375 Z M 6.359375 -3.859375 "/></g></g></g><g fill="#dddaba" fill-opacity="1"><g transform="translate(37.335889, 14.149843)"><g><path d="M 6.109375 0.15625 C 5.347656 0.15625 4.644531 0.015625 4 -0.265625 C 3.363281 -0.546875 2.804688 -0.925781 2.328125 -1.40625 C 1.847656 -1.894531 1.472656 -2.472656 1.203125 -3.140625 C 0.929688 -3.804688 0.796875 -4.523438 0.796875 -5.296875 C 0.796875 -6.085938 0.9375 -6.820312 1.21875 -7.5 C 1.5 -8.175781 1.882812 -8.765625 2.375 -9.265625 C 2.863281 -9.765625 3.429688 -10.15625 4.078125 -10.4375 C 4.734375 -10.726562 5.425781 -10.875 6.15625 -10.875 C 6.957031 -10.875 7.703125 -10.707031 8.390625 -10.375 C 9.085938 -10.039062 9.6875 -9.585938 10.1875 -9.015625 L 9.34375 -8.28125 C 8.925781 -8.769531 8.445312 -9.140625 7.90625 -9.390625 C 7.363281 -9.648438 6.769531 -9.78125 6.125 -9.78125 C 5.53125 -9.78125 4.984375 -9.671875 4.484375 -9.453125 C 3.984375 -9.234375 3.546875 -8.925781 3.171875 -8.53125 C 2.804688 -8.132812 2.519531 -7.671875 2.3125 -7.140625 C 2.101562 -6.609375 2 -6.019531 2 -5.375 C 2 -4.738281 2.101562 -4.144531 2.3125 -3.59375 C 2.519531 -3.050781 2.8125 -2.582031 3.1875 -2.1875 C 3.5625 -1.800781 4.003906 -1.492188 4.515625 -1.265625 C 5.023438 -1.046875 5.582031 -0.9375 6.1875 -0.9375 C 6.863281 -0.9375 7.472656 -1.070312 8.015625 -1.34375 C 8.554688 -1.613281 9.015625 -1.972656 9.390625 -2.421875 L 10.1875 -1.734375 C 9.6875 -1.140625 9.085938 -0.675781 8.390625 -0.34375 C 7.703125 -0.0078125 6.941406 0.15625 6.109375 0.15625 Z M 6.109375 0.15625 "/></g></g></g></g></g></g></svg>