<svg xmlns="http://www.w3.org/2000/svg" xmlns:xlink="http://www.w3.org/1999/xlink" width="500" zoomAndPan="magnify" viewBox="0 0 375 374.999991" height="500" preserveAspectRatio="xMidYMid meet" version="1.0"><defs><filter x="0%" y="0%" width="100%" height="100%" id="99c0961157"><feColorMatrix values="0 0 0 0 1 0 0 0 0 1 0 0 0 0 1 0 0 0 1 0" color-interpolation-filters="sRGB"/></filter><g/><mask id="0a465cc3bb"><g filter="url(#99c0961157)"><rect x="-37.5" width="450" fill="#000000" y="-37.499999" height="449.999989" fill-opacity="0.47"/></g></mask><clipPath id="145534d3c9"><rect x="0" width="196" y="0" height="14"/></clipPath><mask id="5bf37430bd"><g filter="url(#99c0961157)"><rect x="-37.5" width="450" fill="#000000" y="-37.499999" height="449.999989" fill-opacity="0.53"/></g></mask><clipPath id="47cc93137b"><rect x="0" width="59" y="0" height="25"/></clipPath></defs><rect x="-37.5" width="450" fill="#ffffff" y="-37.499999" height="449.999989" fill-opacity="1"/><rect x="-37.5" width="450" fill="#262523" y="-37.499999" height="449.999989" fill-opacity="1"/><g fill="#dddaba" fill-opacity="1"><g transform="translate(56.976504, 206.199478)"><g><path d="M 49.203125 -49.203125 L 49.203125 -50.40625 L 2.03125 -50.40625 L 2.03125 -49.203125 L 7.578125 -49.203125 L 25.046875 0.75 L 26.03125 0.75 L 34.203125 -22.578125 L 42.59375 0.75 L 43.578125 0.75 L 61.125 -49.203125 L 66.296875 -49.203125 L 66.296875 -50.40625 L 53.328125 -50.40625 L 53.328125 -49.203125 L 59.78125 -49.203125 L 45.90625 -9.828125 L 38.40625 -31.5 L 44.625 -49.203125 Z M 43.28125 -49.203125 L 37.71875 -33.453125 L 32.171875 -49.203125 Z M 28.421875 -9.96875 L 14.703125 -49.203125 L 25.046875 -49.203125 L 33.53125 -24.59375 Z M 28.421875 -9.96875 "/></g></g></g><g fill="#dddaba" fill-opacity="1"><g transform="translate(115.091006, 206.199478)"><g><path d="M 22.65625 -50.40625 L 2.46875 -50.40625 L 2.46875 -49.203125 L 8.921875 -49.203125 L 8.921875 -1.203125 L 2.46875 -1.203125 L 2.46875 0 L 22.65625 0 L 22.65625 -1.203125 L 16.203125 -1.203125 L 16.203125 -26.171875 L 36.078125 -26.171875 L 36.078125 -1.203125 L 29.625 -1.203125 L 29.625 0 L 49.796875 0 L 49.796875 -1.203125 L 43.34375 -1.203125 L 43.34375 -49.203125 L 49.796875 -49.203125 L 49.796875 -50.40625 L 29.625 -50.40625 L 29.625 -49.203125 L 36.078125 -49.203125 L 36.078125 -27.453125 L 16.203125 -27.453125 L 16.203125 -49.203125 L 22.65625 -49.203125 Z M 22.65625 -50.40625 "/></g></g></g><g fill="#dddaba" fill-opacity="1"><g transform="translate(157.158008, 206.199478)"><g><path d="M 23.40625 -49.203125 L 23.40625 -50.40625 L 3.21875 -50.40625 L 3.21875 -49.203125 L 9.671875 -49.203125 L 9.671875 -1.203125 L 3.21875 -1.203125 L 3.21875 0 L 23.40625 0 L 23.40625 -1.203125 L 16.953125 -1.203125 L 16.953125 -49.203125 Z M 23.40625 -49.203125 "/></g></g></g><g fill="#dddaba" fill-opacity="1"><g transform="translate(174.478868, 206.199478)"><g><path d="M 33.828125 -50.921875 L 31.65625 -48.15625 C 30.75 -48.65625 29.894531 -49.101562 29.09375 -49.5 C 28.300781 -49.894531 27.488281 -50.21875 26.65625 -50.46875 C 25.832031 -50.71875 24.957031 -50.90625 24.03125 -51.03125 C 23.113281 -51.15625 22.050781 -51.21875 20.84375 -51.21875 C 18.394531 -51.21875 16.207031 -50.816406 14.28125 -50.015625 C 12.363281 -49.222656 10.726562 -48.148438 9.375 -46.796875 C 8.019531 -45.453125 6.992188 -43.90625 6.296875 -42.15625 C 5.597656 -40.40625 5.25 -38.550781 5.25 -36.59375 C 5.25 -33.945312 6.0625 -31.523438 7.6875 -29.328125 C 9.3125 -27.128906 11.847656 -25.453125 15.296875 -24.296875 C 16.953125 -23.742188 18.351562 -23.289062 19.5 -22.9375 C 20.644531 -22.59375 21.71875 -22.257812 22.71875 -21.9375 C 23.71875 -21.613281 24.726562 -21.265625 25.75 -20.890625 C 26.78125 -20.515625 27.972656 -20 29.328125 -19.34375 C 31.023438 -18.550781 32.171875 -17.441406 32.765625 -16.015625 C 33.367188 -14.585938 33.671875 -13.148438 33.671875 -11.703125 C 33.671875 -9.898438 33.320312 -8.257812 32.625 -6.78125 C 31.925781 -5.3125 31 -4.078125 29.84375 -3.078125 C 28.695312 -2.078125 27.375 -1.300781 25.875 -0.75 C 24.375 -0.195312 22.847656 0.078125 21.296875 0.078125 C 19.492188 0.078125 17.769531 -0.234375 16.125 -0.859375 C 14.476562 -1.484375 12.953125 -2.367188 11.546875 -3.515625 C 10.148438 -4.671875 8.9375 -6.097656 7.90625 -7.796875 C 6.882812 -9.492188 6.097656 -11.394531 5.546875 -13.5 C 5.398438 -14.144531 5.125 -14.46875 4.71875 -14.46875 C 4.375 -14.46875 4.203125 -14.117188 4.203125 -13.421875 L 4.203125 0 C 4.203125 0.644531 4.425781 0.96875 4.875 0.96875 C 5.175781 0.96875 5.5 0.71875 5.84375 0.21875 L 8.546875 -3.671875 C 9.148438 -3.117188 9.890625 -2.539062 10.765625 -1.9375 C 11.640625 -1.34375 12.613281 -0.796875 13.6875 -0.296875 C 14.757812 0.203125 15.90625 0.613281 17.125 0.9375 C 18.351562 1.257812 19.617188 1.421875 20.921875 1.421875 C 23.328125 1.421875 25.550781 0.984375 27.59375 0.109375 C 29.644531 -0.765625 31.421875 -1.972656 32.921875 -3.515625 C 34.421875 -5.066406 35.609375 -6.90625 36.484375 -9.03125 C 37.359375 -11.15625 37.796875 -13.445312 37.796875 -15.90625 C 37.796875 -19.25 37.007812 -22.082031 35.4375 -24.40625 C 33.863281 -26.738281 31.375 -28.40625 27.96875 -29.40625 C 26.820312 -29.75 25.75 -30.046875 24.75 -30.296875 C 23.75 -30.546875 22.722656 -30.820312 21.671875 -31.125 C 20.617188 -31.425781 19.519531 -31.765625 18.375 -32.140625 C 17.226562 -32.515625 15.953125 -32.976562 14.546875 -33.53125 C 12.992188 -34.125 11.816406 -35.046875 11.015625 -36.296875 C 10.222656 -37.546875 9.828125 -39 9.828125 -40.65625 C 9.828125 -42.195312 10.148438 -43.554688 10.796875 -44.734375 C 11.453125 -45.910156 12.289062 -46.875 13.3125 -47.625 C 14.332031 -48.375 15.503906 -48.9375 16.828125 -49.3125 C 18.160156 -49.6875 19.5 -49.875 20.84375 -49.875 C 22.894531 -49.875 24.695312 -49.523438 26.25 -48.828125 C 27.800781 -48.128906 29.097656 -47.203125 30.140625 -46.046875 C 31.191406 -44.898438 32.03125 -43.578125 32.65625 -42.078125 C 33.28125 -40.578125 33.695312 -39.023438 33.90625 -37.421875 C 33.945312 -36.921875 34.171875 -36.671875 34.578125 -36.671875 C 34.921875 -36.671875 35.09375 -36.921875 35.09375 -37.421875 L 35.09375 -50.78125 C 35.09375 -51.28125 34.945312 -51.53125 34.65625 -51.53125 C 34.40625 -51.53125 34.128906 -51.328125 33.828125 -50.921875 Z M 33.828125 -50.921875 "/></g></g></g><g fill="#dddaba" fill-opacity="1"><g transform="translate(205.82254, 206.199478)"><g><path d="M 22.953125 -50.40625 L 2.171875 -50.40625 L 2.171875 -49.203125 L 8.625 -49.203125 L 8.625 -1.203125 L 2.171875 -1.203125 L 2.171875 0 L 22.34375 0 L 22.34375 -1.203125 L 15.90625 -1.203125 L 15.90625 -23.171875 L 23.703125 -23.171875 C 25.898438 -23.171875 27.910156 -23.492188 29.734375 -24.140625 C 31.554688 -24.796875 33.117188 -25.722656 34.421875 -26.921875 C 35.722656 -28.117188 36.734375 -29.554688 37.453125 -31.234375 C 38.179688 -32.910156 38.546875 -34.773438 38.546875 -36.828125 C 38.546875 -38.828125 38.179688 -40.660156 37.453125 -42.328125 C 36.734375 -44.003906 35.695312 -45.441406 34.34375 -46.640625 C 33 -47.847656 31.363281 -48.773438 29.4375 -49.421875 C 27.507812 -50.078125 25.347656 -50.40625 22.953125 -50.40625 Z M 15.90625 -24.375 L 15.90625 -49.203125 L 22.953125 -49.203125 C 25.753906 -49.203125 27.941406 -48.363281 29.515625 -46.6875 C 31.085938 -45.007812 31.875 -42.171875 31.875 -38.171875 L 31.875 -35.46875 C 31.875 -31.625 31.097656 -28.8125 29.546875 -27.03125 C 27.992188 -25.257812 26.046875 -24.375 23.703125 -24.375 Z M 15.90625 -24.375 "/></g></g></g><g fill="#dddaba" fill-opacity="1"><g transform="translate(237.166212, 206.199478)"><g><path d="M 16.203125 -25.953125 L 22.125 -25.953125 C 23.226562 -25.953125 24.101562 -25.785156 24.75 -25.453125 C 25.394531 -25.128906 25.90625 -24.664062 26.28125 -24.0625 C 26.65625 -23.46875 26.941406 -22.742188 27.140625 -21.890625 C 27.347656 -21.046875 27.550781 -20.097656 27.75 -19.046875 C 27.894531 -18.347656 28.09375 -18 28.34375 -18 C 28.644531 -18 28.796875 -18.320312 28.796875 -18.96875 L 28.796875 -34.203125 C 28.796875 -34.796875 28.644531 -35.09375 28.34375 -35.09375 C 28.09375 -35.09375 27.894531 -34.742188 27.75 -34.046875 C 27.550781 -32.992188 27.347656 -32.039062 27.140625 -31.1875 C 26.941406 -30.34375 26.65625 -29.617188 26.28125 -29.015625 C 25.90625 -28.421875 25.394531 -27.960938 24.75 -27.640625 C 24.101562 -27.316406 23.226562 -27.15625 22.125 -27.15625 L 16.203125 -27.15625 L 16.203125 -49.203125 L 27.59375 -49.203125 C 29.300781 -49.203125 30.726562 -48.785156 31.875 -47.953125 C 33.019531 -47.128906 33.941406 -46.101562 34.640625 -44.875 C 35.347656 -43.65625 35.863281 -42.359375 36.1875 -40.984375 C 36.507812 -39.609375 36.695312 -38.375 36.75 -37.28125 C 36.75 -36.570312 36.945312 -36.21875 37.34375 -36.21875 C 37.695312 -36.21875 37.875 -36.546875 37.875 -37.203125 L 37.875 -48.59375 C 37.875 -49.800781 37.25 -50.40625 36 -50.40625 L 2.46875 -50.40625 L 2.46875 -49.203125 L 8.921875 -49.203125 L 8.921875 -1.203125 L 2.546875 -1.203125 L 2.546875 0 L 37.796875 0 C 39.242188 0 39.96875 -0.800781 39.96875 -2.40625 L 39.96875 -13.65625 C 39.96875 -14.851562 39.769531 -15.453125 39.375 -15.453125 C 39.019531 -15.453125 38.742188 -14.925781 38.546875 -13.875 C 38.148438 -11.976562 37.722656 -10.253906 37.265625 -8.703125 C 36.816406 -7.148438 36.21875 -5.8125 35.46875 -4.6875 C 34.71875 -3.5625 33.769531 -2.695312 32.625 -2.09375 C 31.476562 -1.5 30.03125 -1.203125 28.28125 -1.203125 L 16.203125 -1.203125 Z M 16.203125 -25.953125 "/></g></g></g><g fill="#dddaba" fill-opacity="1"><g transform="translate(270.909526, 206.199478)"><g><path d="M 39.59375 -3.21875 C 39.445312 -3.71875 39.335938 -4.414062 39.265625 -5.3125 C 39.191406 -6.21875 39.140625 -7.195312 39.109375 -8.25 C 39.085938 -9.300781 39.0625 -10.375 39.03125 -11.46875 C 39.007812 -12.570312 38.925781 -13.625 38.78125 -14.625 C 38.476562 -16.625 37.972656 -18.273438 37.265625 -19.578125 C 36.566406 -20.878906 35.71875 -21.941406 34.71875 -22.765625 C 33.71875 -23.585938 32.566406 -24.234375 31.265625 -24.703125 C 29.972656 -25.179688 28.578125 -25.625 27.078125 -26.03125 C 30.972656 -26.726562 33.96875 -28.113281 36.0625 -30.1875 C 38.164062 -32.257812 39.21875 -34.875 39.21875 -38.03125 C 39.21875 -39.976562 38.804688 -41.722656 37.984375 -43.265625 C 37.160156 -44.816406 36.046875 -46.117188 34.640625 -47.171875 C 33.242188 -48.222656 31.582031 -49.023438 29.65625 -49.578125 C 27.738281 -50.128906 25.703125 -50.40625 23.546875 -50.40625 L 2.40625 -50.40625 L 2.40625 -49.203125 L 8.84375 -49.203125 L 8.84375 -1.203125 L 2.40625 -1.203125 L 2.40625 0 L 22.578125 0 L 22.578125 -1.203125 L 16.125 -1.203125 L 16.125 -25.71875 L 22.34375 -25.71875 C 23.144531 -25.71875 23.992188 -25.582031 24.890625 -25.3125 C 25.796875 -25.039062 26.632812 -24.515625 27.40625 -23.734375 C 28.1875 -22.960938 28.863281 -21.890625 29.4375 -20.515625 C 30.007812 -19.140625 30.421875 -17.375 30.671875 -15.21875 C 30.828125 -13.925781 30.914062 -12.601562 30.9375 -11.25 C 30.957031 -9.894531 31.03125 -8.59375 31.15625 -7.34375 C 31.28125 -6.09375 31.503906 -4.941406 31.828125 -3.890625 C 32.160156 -2.847656 32.675781 -1.953125 33.375 -1.203125 C 34.019531 -0.503906 34.78125 -0.03125 35.65625 0.21875 C 36.53125 0.46875 37.46875 0.59375 38.46875 0.59375 C 39.320312 0.59375 40.171875 0.503906 41.015625 0.328125 C 41.867188 0.160156 42.65625 -0.046875 43.375 -0.296875 C 44.101562 -0.546875 44.726562 -0.804688 45.25 -1.078125 C 45.78125 -1.359375 46.171875 -1.625 46.421875 -1.875 C 46.578125 -2.019531 46.65625 -2.171875 46.65625 -2.328125 C 46.65625 -2.472656 46.578125 -2.546875 46.421875 -2.546875 C 46.328125 -2.546875 46.175781 -2.5 45.96875 -2.40625 C 44.96875 -1.695312 43.84375 -1.34375 42.59375 -1.34375 C 41.050781 -1.34375 40.050781 -1.96875 39.59375 -3.21875 Z M 16.125 -26.921875 L 16.125 -49.203125 L 23.546875 -49.203125 C 29.242188 -49.203125 32.09375 -45.925781 32.09375 -39.375 L 32.09375 -36.671875 C 32.09375 -30.171875 29.242188 -26.921875 23.546875 -26.921875 Z M 16.125 -26.921875 "/></g></g></g><g mask="url(#0a465cc3bb)"><g transform="matrix(1, 0, 0, 1, 91, 265)"><g clip-path="url(#145534d3c9)"><g fill="#dddaba" fill-opacity="1"><g transform="translate(0.710863, 10.084074)"><g><path d="M 3.140625 -7.59375 L 3.359375 -7.59375 L 6.15625 0 L 5.3125 0 L 4.625 -1.9375 L 1.828125 -1.9375 L 1.140625 0 L 0.328125 0 Z M 4.359375 -2.65625 L 3.21875 -5.84375 L 2.078125 -2.65625 Z M 4.359375 -2.65625 "/></g></g></g><g fill="#dddaba" fill-opacity="1"><g transform="translate(9.143266, 10.084074)"><g/></g></g><g fill="#dddaba" fill-opacity="1"><g transform="translate(13.508542, 10.084074)"><g><path d="M 0.328125 -7.375 L 1.140625 -7.375 L 3.015625 -1.734375 L 5.078125 -7.375 L 5.296875 -7.375 L 7.359375 -1.8125 L 9.203125 -7.375 L 9.984375 -7.375 L 7.46875 0.21875 L 7.296875 0.21875 L 5.15625 -5.5625 L 3.0625 0.21875 L 2.84375 0.21875 Z M 0.328125 -7.375 "/></g></g></g><g fill="#dddaba" fill-opacity="1"><g transform="translate(25.755249, 10.084074)"><g><path d="M 3.140625 -7.59375 L 3.359375 -7.59375 L 6.15625 0 L 5.3125 0 L 4.625 -1.9375 L 1.828125 -1.9375 L 1.140625 0 L 0.328125 0 Z M 4.359375 -2.65625 L 3.21875 -5.84375 L 2.078125 -2.65625 Z M 4.359375 -2.65625 "/></g></g></g><g fill="#dddaba" fill-opacity="1"><g transform="translate(34.187653, 10.084074)"><g><path d="M 0.984375 -7.375 L 1.765625 -7.375 L 1.765625 -0.71875 L 4.734375 -0.71875 L 4.734375 0 L 0.984375 0 Z M 0.984375 -7.375 "/></g></g></g><g fill="#dddaba" fill-opacity="1"><g transform="translate(41.355954, 10.084074)"><g><path d="M 0.984375 -7.375 L 1.765625 -7.375 L 1.765625 -0.71875 L 4.734375 -0.71875 L 4.734375 0 L 0.984375 0 Z M 0.984375 -7.375 "/></g></g></g><g fill="#dddaba" fill-opacity="1"><g transform="translate(48.524255, 10.084074)"><g/></g></g><g fill="#dddaba" fill-opacity="1"><g transform="translate(52.889532, 10.084074)"><g><path d="M 2.75 -6.65625 L 0.328125 -6.65625 L 0.328125 -7.375 L 5.9375 -7.375 L 5.9375 -6.65625 L 3.515625 -6.65625 L 3.515625 0 L 2.75 0 Z M 2.75 -6.65625 "/></g></g></g><g fill="#dddaba" fill-opacity="1"><g transform="translate(61.102092, 10.084074)"><g><path d="M 0.984375 -7.375 L 1.765625 -7.375 L 1.765625 -4.0625 L 5.71875 -4.0625 L 5.71875 -7.375 L 6.484375 -7.375 L 6.484375 0 L 5.71875 0 L 5.71875 -3.359375 L 1.765625 -3.359375 L 1.765625 0 L 0.984375 0 Z M 0.984375 -7.375 "/></g></g></g><g fill="#dddaba" fill-opacity="1"><g transform="translate(70.523801, 10.084074)"><g><path d="M 3.140625 -7.59375 L 3.359375 -7.59375 L 6.15625 0 L 5.3125 0 L 4.625 -1.9375 L 1.828125 -1.9375 L 1.140625 0 L 0.328125 0 Z M 4.359375 -2.65625 L 3.21875 -5.84375 L 2.078125 -2.65625 Z M 4.359375 -2.65625 "/></g></g></g><g fill="#dddaba" fill-opacity="1"><g transform="translate(78.956202, 10.084074)"><g><path d="M 2.75 -6.65625 L 0.328125 -6.65625 L 0.328125 -7.375 L 5.9375 -7.375 L 5.9375 -6.65625 L 3.515625 -6.65625 L 3.515625 0 L 2.75 0 Z M 2.75 -6.65625 "/></g></g></g><g fill="#dddaba" fill-opacity="1"><g transform="translate(87.168762, 10.084074)"><g/></g></g><g fill="#dddaba" fill-opacity="1"><g transform="translate(91.534036, 10.084074)"><g><path d="M 0.328125 -7.375 L 1.140625 -7.375 L 3.015625 -1.734375 L 5.078125 -7.375 L 5.296875 -7.375 L 7.359375 -1.8125 L 9.203125 -7.375 L 9.984375 -7.375 L 7.46875 0.21875 L 7.296875 0.21875 L 5.15625 -5.5625 L 3.0625 0.21875 L 2.84375 0.21875 Z M 0.328125 -7.375 "/></g></g></g><g fill="#dddaba" fill-opacity="1"><g transform="translate(103.780741, 10.084074)"><g><path d="M 0.984375 -7.375 L 1.765625 -7.375 L 1.765625 -4.0625 L 5.71875 -4.0625 L 5.71875 -7.375 L 6.484375 -7.375 L 6.484375 0 L 5.71875 0 L 5.71875 -3.359375 L 1.765625 -3.359375 L 1.765625 0 L 0.984375 0 Z M 0.984375 -7.375 "/></g></g></g><g fill="#dddaba" fill-opacity="1"><g transform="translate(113.202455, 10.084074)"><g><path d="M 0.984375 -7.375 L 1.765625 -7.375 L 1.765625 0 L 0.984375 0 Z M 0.984375 -7.375 "/></g></g></g><g fill="#dddaba" fill-opacity="1"><g transform="translate(117.897508, 10.084074)"><g><path d="M 2.765625 0.109375 C 2.265625 0.109375 1.800781 -0.0078125 1.375 -0.25 C 0.957031 -0.488281 0.609375 -0.832031 0.328125 -1.28125 L 0.921875 -1.765625 C 1.429688 -0.984375 2.046875 -0.59375 2.765625 -0.59375 C 3.203125 -0.59375 3.550781 -0.707031 3.8125 -0.9375 C 4.082031 -1.175781 4.21875 -1.488281 4.21875 -1.875 C 4.21875 -2.21875 4.097656 -2.507812 3.859375 -2.75 C 3.617188 -2.988281 3.234375 -3.21875 2.703125 -3.4375 C 2.035156 -3.6875 1.550781 -3.984375 1.25 -4.328125 C 0.957031 -4.671875 0.8125 -5.082031 0.8125 -5.5625 C 0.8125 -5.851562 0.859375 -6.113281 0.953125 -6.34375 C 1.046875 -6.582031 1.179688 -6.785156 1.359375 -6.953125 C 1.535156 -7.117188 1.742188 -7.25 1.984375 -7.34375 C 2.234375 -7.4375 2.507812 -7.484375 2.8125 -7.484375 C 3.65625 -7.484375 4.351562 -7.109375 4.90625 -6.359375 L 4.3125 -5.875 C 4.09375 -6.1875 3.859375 -6.410156 3.609375 -6.546875 C 3.367188 -6.691406 3.101562 -6.765625 2.8125 -6.765625 C 2.4375 -6.765625 2.132812 -6.660156 1.90625 -6.453125 C 1.6875 -6.253906 1.578125 -5.976562 1.578125 -5.625 C 1.578125 -5.300781 1.6875 -5.019531 1.90625 -4.78125 C 2.132812 -4.550781 2.507812 -4.335938 3.03125 -4.140625 C 3.695312 -3.878906 4.1875 -3.570312 4.5 -3.21875 C 4.820312 -2.863281 4.984375 -2.441406 4.984375 -1.953125 C 4.984375 -1.648438 4.925781 -1.367188 4.8125 -1.109375 C 4.707031 -0.859375 4.554688 -0.640625 4.359375 -0.453125 C 4.160156 -0.273438 3.925781 -0.132812 3.65625 -0.03125 C 3.382812 0.0625 3.085938 0.109375 2.765625 0.109375 Z M 2.765625 0.109375 "/></g></g></g><g fill="#dddaba" fill-opacity="1"><g transform="translate(125.373589, 10.084074)"><g><path d="M 0.984375 -7.375 L 2.75 -7.375 C 3.113281 -7.375 3.453125 -7.316406 3.765625 -7.203125 C 4.078125 -7.097656 4.34375 -6.945312 4.5625 -6.75 C 4.789062 -6.550781 4.96875 -6.3125 5.09375 -6.03125 C 5.21875 -5.757812 5.28125 -5.460938 5.28125 -5.140625 C 5.28125 -4.816406 5.21875 -4.519531 5.09375 -4.25 C 4.96875 -3.976562 4.789062 -3.742188 4.5625 -3.546875 C 4.34375 -3.347656 4.078125 -3.191406 3.765625 -3.078125 C 3.453125 -2.972656 3.113281 -2.921875 2.75 -2.921875 L 1.765625 -2.921875 L 1.765625 0 L 0.984375 0 Z M 2.75 -3.640625 C 3.28125 -3.640625 3.707031 -3.773438 4.03125 -4.046875 C 4.351562 -4.328125 4.515625 -4.695312 4.515625 -5.15625 C 4.515625 -5.613281 4.351562 -5.976562 4.03125 -6.25 C 3.707031 -6.519531 3.28125 -6.65625 2.75 -6.65625 L 1.765625 -6.65625 L 1.765625 -3.640625 Z M 2.75 -3.640625 "/></g></g></g><g fill="#dddaba" fill-opacity="1"><g transform="translate(133.091507, 10.084074)"><g><path d="M 0.984375 -7.375 L 4.78125 -7.375 L 4.78125 -6.65625 L 1.765625 -6.65625 L 1.765625 -4.1875 L 4.0625 -4.1875 L 4.0625 -3.46875 L 1.765625 -3.46875 L 1.765625 -0.71875 L 4.84375 -0.71875 L 4.84375 0 L 0.984375 0 Z M 0.984375 -7.375 "/></g></g></g><g fill="#dddaba" fill-opacity="1"><g transform="translate(140.534618, 10.084074)"><g><path d="M 0.984375 -7.375 L 2.75 -7.375 C 3.113281 -7.375 3.453125 -7.316406 3.765625 -7.203125 C 4.078125 -7.097656 4.34375 -6.945312 4.5625 -6.75 C 4.789062 -6.5625 4.96875 -6.332031 5.09375 -6.0625 C 5.21875 -5.800781 5.28125 -5.515625 5.28125 -5.203125 C 5.28125 -4.941406 5.238281 -4.695312 5.15625 -4.46875 C 5.070312 -4.25 4.957031 -4.050781 4.8125 -3.875 C 4.664062 -3.695312 4.488281 -3.539062 4.28125 -3.40625 C 4.082031 -3.28125 3.863281 -3.1875 3.625 -3.125 L 5.71875 0 L 4.796875 0 L 2.75 -3.03125 L 1.765625 -3.03125 L 1.765625 0 L 0.984375 0 Z M 2.75 -3.75 C 3.28125 -3.75 3.707031 -3.878906 4.03125 -4.140625 C 4.351562 -4.410156 4.515625 -4.769531 4.515625 -5.21875 C 4.515625 -5.65625 4.351562 -6.003906 4.03125 -6.265625 C 3.707031 -6.523438 3.28125 -6.65625 2.75 -6.65625 L 1.765625 -6.65625 L 1.765625 -3.75 Z M 2.75 -3.75 "/></g></g></g><g fill="#dddaba" fill-opacity="1"><g transform="translate(148.637264, 10.084074)"><g><path d="M 2.765625 0.109375 C 2.265625 0.109375 1.800781 -0.0078125 1.375 -0.25 C 0.957031 -0.488281 0.609375 -0.832031 0.328125 -1.28125 L 0.921875 -1.765625 C 1.429688 -0.984375 2.046875 -0.59375 2.765625 -0.59375 C 3.203125 -0.59375 3.550781 -0.707031 3.8125 -0.9375 C 4.082031 -1.175781 4.21875 -1.488281 4.21875 -1.875 C 4.21875 -2.21875 4.097656 -2.507812 3.859375 -2.75 C 3.617188 -2.988281 3.234375 -3.21875 2.703125 -3.4375 C 2.035156 -3.6875 1.550781 -3.984375 1.25 -4.328125 C 0.957031 -4.671875 0.8125 -5.082031 0.8125 -5.5625 C 0.8125 -5.851562 0.859375 -6.113281 0.953125 -6.34375 C 1.046875 -6.582031 1.179688 -6.785156 1.359375 -6.953125 C 1.535156 -7.117188 1.742188 -7.25 1.984375 -7.34375 C 2.234375 -7.4375 2.507812 -7.484375 2.8125 -7.484375 C 3.65625 -7.484375 4.351562 -7.109375 4.90625 -6.359375 L 4.3125 -5.875 C 4.09375 -6.1875 3.859375 -6.410156 3.609375 -6.546875 C 3.367188 -6.691406 3.101562 -6.765625 2.8125 -6.765625 C 2.4375 -6.765625 2.132812 -6.660156 1.90625 -6.453125 C 1.6875 -6.253906 1.578125 -5.976562 1.578125 -5.625 C 1.578125 -5.300781 1.6875 -5.019531 1.90625 -4.78125 C 2.132812 -4.550781 2.507812 -4.335938 3.03125 -4.140625 C 3.695312 -3.878906 4.1875 -3.570312 4.5 -3.21875 C 4.820312 -2.863281 4.984375 -2.441406 4.984375 -1.953125 C 4.984375 -1.648438 4.925781 -1.367188 4.8125 -1.109375 C 4.707031 -0.859375 4.554688 -0.640625 4.359375 -0.453125 C 4.160156 -0.273438 3.925781 -0.132812 3.65625 -0.03125 C 3.382812 0.0625 3.085938 0.109375 2.765625 0.109375 Z M 2.765625 0.109375 "/></g></g></g><g fill="#dddaba" fill-opacity="1"><g transform="translate(156.113345, 10.084074)"><g/></g></g><g fill="#dddaba" fill-opacity="1"><g transform="translate(160.478625, 10.084074)"><g><path d="M 0.984375 -7.375 L 2.640625 -7.375 C 2.972656 -7.375 3.28125 -7.320312 3.5625 -7.21875 C 3.851562 -7.125 4.101562 -6.988281 4.3125 -6.8125 C 4.519531 -6.644531 4.679688 -6.441406 4.796875 -6.203125 C 4.910156 -5.972656 4.96875 -5.71875 4.96875 -5.4375 C 4.96875 -5.101562 4.882812 -4.800781 4.71875 -4.53125 C 4.550781 -4.269531 4.3125 -4.054688 4 -3.890625 C 4.425781 -3.734375 4.765625 -3.492188 5.015625 -3.171875 C 5.265625 -2.859375 5.390625 -2.488281 5.390625 -2.0625 C 5.390625 -1.757812 5.328125 -1.484375 5.203125 -1.234375 C 5.078125 -0.992188 4.898438 -0.78125 4.671875 -0.59375 C 4.453125 -0.40625 4.1875 -0.257812 3.875 -0.15625 C 3.5625 -0.0507812 3.222656 0 2.859375 0 L 0.984375 0 Z M 2.859375 -0.71875 C 3.390625 -0.71875 3.816406 -0.84375 4.140625 -1.09375 C 4.460938 -1.34375 4.625 -1.679688 4.625 -2.109375 C 4.625 -2.523438 4.460938 -2.859375 4.140625 -3.109375 C 3.816406 -3.367188 3.390625 -3.5 2.859375 -3.5 L 1.765625 -3.5 L 1.765625 -0.71875 Z M 2.640625 -4.1875 C 3.117188 -4.1875 3.5 -4.296875 3.78125 -4.515625 C 4.0625 -4.734375 4.203125 -5.03125 4.203125 -5.40625 C 4.203125 -5.78125 4.054688 -6.082031 3.765625 -6.3125 C 3.484375 -6.539062 3.109375 -6.65625 2.640625 -6.65625 L 1.765625 -6.65625 L 1.765625 -4.1875 Z M 2.640625 -4.1875 "/></g></g></g><g fill="#dddaba" fill-opacity="1"><g transform="translate(168.47135, 10.084074)"><g><path d="M 3.140625 -7.59375 L 3.359375 -7.59375 L 6.15625 0 L 5.3125 0 L 4.625 -1.9375 L 1.828125 -1.9375 L 1.140625 0 L 0.328125 0 Z M 4.359375 -2.65625 L 3.21875 -5.84375 L 2.078125 -2.65625 Z M 4.359375 -2.65625 "/></g></g></g><g fill="#dddaba" fill-opacity="1"><g transform="translate(176.903757, 10.084074)"><g><path d="M 4.203125 0.109375 C 3.679688 0.109375 3.195312 0.015625 2.75 -0.171875 C 2.3125 -0.367188 1.925781 -0.632812 1.59375 -0.96875 C 1.269531 -1.300781 1.015625 -1.695312 0.828125 -2.15625 C 0.640625 -2.613281 0.546875 -3.109375 0.546875 -3.640625 C 0.546875 -4.179688 0.644531 -4.6875 0.84375 -5.15625 C 1.039062 -5.625 1.304688 -6.03125 1.640625 -6.375 C 1.972656 -6.71875 2.359375 -6.988281 2.796875 -7.1875 C 3.242188 -7.382812 3.722656 -7.484375 4.234375 -7.484375 C 4.785156 -7.484375 5.296875 -7.363281 5.765625 -7.125 C 6.242188 -6.894531 6.65625 -6.582031 7 -6.1875 L 6.421875 -5.703125 C 6.140625 -6.023438 5.8125 -6.273438 5.4375 -6.453125 C 5.0625 -6.628906 4.65625 -6.71875 4.21875 -6.71875 C 3.800781 -6.71875 3.421875 -6.640625 3.078125 -6.484375 C 2.734375 -6.335938 2.429688 -6.128906 2.171875 -5.859375 C 1.921875 -5.585938 1.722656 -5.269531 1.578125 -4.90625 C 1.441406 -4.539062 1.375 -4.140625 1.375 -3.703125 C 1.375 -3.253906 1.441406 -2.84375 1.578125 -2.46875 C 1.722656 -2.09375 1.925781 -1.769531 2.1875 -1.5 C 2.445312 -1.238281 2.75 -1.03125 3.09375 -0.875 C 3.445312 -0.726562 3.832031 -0.65625 4.25 -0.65625 C 4.71875 -0.65625 5.140625 -0.742188 5.515625 -0.921875 C 5.890625 -1.109375 6.203125 -1.351562 6.453125 -1.65625 L 7 -1.1875 C 6.65625 -0.78125 6.242188 -0.460938 5.765625 -0.234375 C 5.296875 -0.00390625 4.773438 0.109375 4.203125 0.109375 Z M 4.203125 0.109375 "/></g></g></g><g fill="#dddaba" fill-opacity="1"><g transform="translate(186.347455, 10.084074)"><g><path d="M 0.984375 -7.375 L 1.765625 -7.375 L 1.765625 -3.984375 L 4.78125 -7.375 L 5.734375 -7.375 L 2.578125 -3.84375 L 5.875 0 L 4.84375 0 L 1.765625 -3.609375 L 1.765625 0 L 0.984375 0 Z M 0.984375 -7.375 "/></g></g></g></g></g></g><g fill="#dddaba" fill-opacity="1"><g transform="translate(64.748946, 257.73407)"><g><path d="M 80.625 3.359375 C 79.96875 3.359375 79.363281 3.007812 78.8125 2.3125 C 78.519531 1.539062 78.375 0.828125 78.375 0.171875 C 78.375 -0.0859375 78.398438 -0.351562 78.453125 -0.625 C 78.515625 -0.90625 78.5625 -1.175781 78.59375 -1.4375 C 78.851562 -2.457031 79.179688 -3.453125 79.578125 -4.421875 C 79.984375 -5.398438 80.425781 -6.382812 80.90625 -7.375 C 81.5625 -8.800781 82.3125 -10.179688 83.15625 -11.515625 C 84 -12.859375 84.914062 -14.15625 85.90625 -15.40625 C 86.125 -15.726562 86.351562 -16.046875 86.59375 -16.359375 C 86.832031 -16.671875 87.132812 -17.007812 87.5 -17.375 C 87.945312 -17.96875 88.425781 -18.53125 88.9375 -19.0625 C 89.445312 -19.59375 89.941406 -20.09375 90.421875 -20.5625 C 91.046875 -21.226562 91.757812 -21.972656 92.5625 -22.796875 C 93.375 -23.617188 94.070312 -24.363281 94.65625 -25.03125 C 94.289062 -24.84375 93.941406 -24.691406 93.609375 -24.578125 C 92.804688 -24.285156 92.007812 -23.960938 91.21875 -23.609375 C 90.425781 -23.265625 89.644531 -22.929688 88.875 -22.609375 C 88.625 -22.492188 88.347656 -22.363281 88.046875 -22.21875 C 87.753906 -22.070312 87.5 -21.925781 87.28125 -21.78125 C 87.03125 -21.632812 86.753906 -21.492188 86.453125 -21.359375 C 86.160156 -21.234375 85.867188 -21.097656 85.578125 -20.953125 C 84.878906 -20.585938 84.171875 -20.238281 83.453125 -19.90625 C 82.742188 -19.582031 82.023438 -19.21875 81.296875 -18.8125 L 77.171875 -16.5 C 76.691406 -16.238281 76.140625 -15.929688 75.515625 -15.578125 C 74.890625 -15.234375 74.359375 -14.9375 73.921875 -14.6875 C 73.003906 -14.101562 72.125 -13.539062 71.28125 -13 C 70.4375 -12.46875 69.554688 -11.929688 68.640625 -11.390625 C 66.878906 -10.285156 65.21875 -9.164062 63.65625 -8.03125 C 62.101562 -6.894531 60.484375 -5.738281 58.796875 -4.5625 C 57.515625 -3.644531 56.332031 -2.800781 55.25 -2.03125 C 54.164062 -1.257812 53.203125 -0.691406 52.359375 -0.328125 C 52.066406 -0.179688 51.753906 -0.109375 51.421875 -0.109375 C 51.097656 -0.109375 50.804688 -0.179688 50.546875 -0.328125 C 50.285156 -0.617188 50.15625 -1.003906 50.15625 -1.484375 C 50.15625 -1.890625 50.25 -2.332031 50.4375 -2.8125 C 50.613281 -3.425781 50.859375 -4.015625 51.171875 -4.578125 C 51.484375 -5.148438 51.804688 -5.734375 52.140625 -6.328125 C 52.429688 -6.878906 52.769531 -7.410156 53.15625 -7.921875 C 53.539062 -8.429688 53.898438 -8.925781 54.234375 -9.40625 C 54.742188 -10.207031 55.3125 -10.96875 55.9375 -11.6875 C 56.5625 -12.40625 57.164062 -13.128906 57.75 -13.859375 C 58.113281 -14.296875 58.46875 -14.734375 58.8125 -15.171875 C 59.164062 -15.617188 59.523438 -16.023438 59.890625 -16.390625 C 60.367188 -16.941406 60.847656 -17.507812 61.328125 -18.09375 C 61.804688 -18.675781 62.28125 -19.226562 62.75 -19.75 C 64.070312 -21.0625 65.375 -22.378906 66.65625 -23.703125 C 67.9375 -25.023438 69.257812 -26.347656 70.625 -27.671875 C 71.5 -28.617188 72.375 -29.550781 73.25 -30.46875 C 74.132812 -31.382812 75.054688 -32.265625 76.015625 -33.109375 C 77.179688 -34.210938 78.332031 -35.296875 79.46875 -36.359375 C 80.613281 -37.421875 81.769531 -38.460938 82.9375 -39.484375 C 83.925781 -40.328125 84.925781 -41.171875 85.9375 -42.015625 C 86.945312 -42.859375 87.925781 -43.703125 88.875 -44.546875 C 89.613281 -45.210938 90.46875 -45.921875 91.4375 -46.671875 C 92.40625 -47.421875 93.257812 -48.109375 94 -48.734375 C 93.40625 -48.398438 92.925781 -48.21875 92.5625 -48.1875 C 91.207031 -47.851562 89.925781 -47.628906 88.71875 -47.515625 C 87.507812 -47.410156 86.148438 -47.375 84.640625 -47.40625 C 83.796875 -47.445312 82.941406 -47.492188 82.078125 -47.546875 C 81.222656 -47.597656 80.375 -47.695312 79.53125 -47.84375 C 78.945312 -47.914062 78.1875 -48.046875 77.25 -48.234375 C 76.3125 -48.421875 75.53125 -48.566406 74.90625 -48.671875 C 74.175781 -48.816406 73.472656 -48.976562 72.796875 -49.15625 C 72.117188 -49.34375 71.410156 -49.515625 70.671875 -49.671875 C 69.648438 -49.890625 68.632812 -50.144531 67.625 -50.4375 C 66.613281 -50.726562 65.578125 -50.945312 64.515625 -51.09375 C 63.742188 -51.207031 62.984375 -51.335938 62.234375 -51.484375 C 61.484375 -51.628906 60.722656 -51.773438 59.953125 -51.921875 C 59.035156 -52.097656 58.097656 -52.242188 57.140625 -52.359375 C 56.191406 -52.472656 55.257812 -52.601562 54.34375 -52.75 C 53.863281 -52.820312 53.441406 -52.894531 53.078125 -52.96875 C 52.710938 -53.039062 52.21875 -53.09375 51.59375 -53.125 C 50.894531 -53.269531 50.160156 -53.390625 49.390625 -53.484375 C 48.617188 -53.578125 47.796875 -53.625 46.921875 -53.625 C 46.328125 -53.664062 45.78125 -53.664062 45.28125 -53.625 C 44.789062 -53.582031 44.289062 -53.5625 43.78125 -53.5625 C 43.445312 -53.601562 43.078125 -53.625 42.671875 -53.625 C 42.273438 -53.625 41.875 -53.625 41.46875 -53.625 C 41.132812 -53.625 40.800781 -53.625 40.46875 -53.625 C 40.144531 -53.625 39.835938 -53.585938 39.546875 -53.515625 C 39.398438 -53.472656 39.257812 -53.453125 39.125 -53.453125 C 39 -53.453125 38.863281 -53.453125 38.71875 -53.453125 C 37.539062 -53.492188 36.394531 -53.394531 35.28125 -53.15625 C 34.164062 -52.914062 33.019531 -52.707031 31.84375 -52.53125 C 31.144531 -52.382812 30.4375 -52.226562 29.71875 -52.0625 C 29.007812 -51.894531 28.289062 -51.71875 27.5625 -51.53125 C 26.894531 -51.382812 26.203125 -51.164062 25.484375 -50.875 C 24.773438 -50.582031 24.109375 -50.34375 23.484375 -50.15625 C 22.453125 -49.863281 21.476562 -49.46875 20.5625 -48.96875 C 19.644531 -48.476562 18.710938 -47.992188 17.765625 -47.515625 C 16.410156 -46.890625 15.117188 -46.175781 13.890625 -45.375 C 12.660156 -44.570312 11.457031 -43.710938 10.28125 -42.796875 C 7.601562 -40.585938 5.273438 -38.09375 3.296875 -35.3125 C 3.148438 -35.050781 2.984375 -34.800781 2.796875 -34.5625 C 2.617188 -34.320312 2.457031 -34.09375 2.3125 -33.875 C 2.125 -33.625 1.945312 -33.367188 1.78125 -33.109375 C 1.625 -32.847656 1.453125 -32.570312 1.265625 -32.28125 C 1.117188 -32.03125 1 -31.773438 0.90625 -31.515625 C 0.8125 -31.253906 0.710938 -30.976562 0.609375 -30.6875 C 0.460938 -30.726562 0.359375 -30.765625 0.296875 -30.796875 C 0.242188 -30.835938 0.179688 -30.859375 0.109375 -30.859375 C 0.0351562 -30.929688 0 -31.039062 0 -31.1875 C 0 -31.363281 0.0546875 -31.507812 0.171875 -31.625 C 0.390625 -32.175781 0.679688 -32.742188 1.046875 -33.328125 C 1.671875 -34.242188 2.300781 -35.148438 2.9375 -36.046875 C 3.582031 -36.953125 4.269531 -37.804688 5 -38.609375 C 5.070312 -38.679688 5.144531 -38.753906 5.21875 -38.828125 C 5.289062 -38.898438 5.347656 -38.957031 5.390625 -39 C 5.796875 -39.800781 6.304688 -40.46875 6.921875 -41 C 7.546875 -41.53125 8.171875 -42.09375 8.796875 -42.6875 C 9.234375 -43.082031 9.691406 -43.445312 10.171875 -43.78125 C 10.648438 -44.113281 11.09375 -44.476562 11.5 -44.875 C 11.71875 -45.09375 11.878906 -45.222656 11.984375 -45.265625 C 12.898438 -45.671875 13.769531 -46.144531 14.59375 -46.6875 C 15.425781 -47.238281 16.28125 -47.753906 17.15625 -48.234375 C 18.4375 -48.859375 19.703125 -49.453125 20.953125 -50.015625 C 22.203125 -50.585938 23.488281 -51.078125 24.8125 -51.484375 C 26.09375 -51.921875 27.363281 -52.320312 28.625 -52.6875 C 29.894531 -53.050781 31.1875 -53.289062 32.5 -53.40625 C 32.757812 -53.40625 33.007812 -53.441406 33.25 -53.515625 C 33.488281 -53.585938 33.734375 -53.644531 33.984375 -53.6875 C 35.304688 -53.863281 36.628906 -54.035156 37.953125 -54.203125 C 39.273438 -54.367188 40.578125 -54.414062 41.859375 -54.34375 C 42.585938 -54.300781 43.328125 -54.289062 44.078125 -54.3125 C 44.828125 -54.332031 45.585938 -54.34375 46.359375 -54.34375 C 46.984375 -54.34375 47.625 -54.320312 48.28125 -54.28125 C 48.945312 -54.25 49.609375 -54.175781 50.265625 -54.0625 C 51.222656 -53.914062 52.203125 -53.796875 53.203125 -53.703125 C 54.210938 -53.609375 55.195312 -53.472656 56.15625 -53.296875 C 57.257812 -53.078125 58.378906 -52.894531 59.515625 -52.75 C 60.648438 -52.601562 61.765625 -52.398438 62.859375 -52.140625 C 64.109375 -51.878906 65.347656 -51.601562 66.578125 -51.3125 C 67.804688 -51.019531 69.046875 -50.726562 70.296875 -50.4375 C 71.796875 -50.03125 73.296875 -49.6875 74.796875 -49.40625 C 76.304688 -49.132812 77.8125 -48.851562 79.3125 -48.5625 C 80.226562 -48.414062 81.160156 -48.304688 82.109375 -48.234375 C 83.066406 -48.160156 84.003906 -48.125 84.921875 -48.125 C 85.398438 -48.125 85.875 -48.132812 86.34375 -48.15625 C 86.820312 -48.175781 87.300781 -48.203125 87.78125 -48.234375 C 89.320312 -48.347656 90.832031 -48.585938 92.3125 -48.953125 C 93.800781 -49.316406 95.242188 -49.847656 96.640625 -50.546875 C 97.035156 -50.722656 97.453125 -50.867188 97.890625 -50.984375 C 98.335938 -51.097656 98.742188 -51.191406 99.109375 -51.265625 C 99.398438 -51.191406 99.703125 -51.085938 100.015625 -50.953125 C 100.328125 -50.828125 100.503906 -50.632812 100.546875 -50.375 C 100.503906 -50.300781 100.484375 -50.226562 100.484375 -50.15625 C 100.484375 -50.082031 100.445312 -50.007812 100.375 -49.9375 C 100.226562 -49.757812 100.070312 -49.585938 99.90625 -49.421875 C 99.738281 -49.253906 99.582031 -49.097656 99.4375 -48.953125 C 98.632812 -48.140625 97.78125 -47.375 96.875 -46.65625 C 95.976562 -45.945312 95.09375 -45.226562 94.21875 -44.5 C 93.625 -44.050781 93.050781 -43.578125 92.5 -43.078125 C 91.957031 -42.585938 91.375 -42.085938 90.75 -41.578125 C 89.789062 -40.734375 88.804688 -39.878906 87.796875 -39.015625 C 86.796875 -38.160156 85.816406 -37.3125 84.859375 -36.46875 L 83.328125 -35.03125 C 79.804688 -31.914062 76.367188 -28.71875 73.015625 -25.4375 C 69.660156 -22.15625 66.296875 -18.882812 62.921875 -15.625 C 61.960938 -14.632812 61.003906 -13.625 60.046875 -12.59375 C 59.097656 -11.570312 58.1875 -10.523438 57.3125 -9.453125 C 56.726562 -8.691406 56.125 -7.925781 55.5 -7.15625 C 54.875 -6.382812 54.285156 -5.59375 53.734375 -4.78125 C 53.472656 -4.34375 53.222656 -3.910156 52.984375 -3.484375 C 52.753906 -3.066406 52.53125 -2.640625 52.3125 -2.203125 C 52.269531 -2.085938 52.21875 -1.984375 52.15625 -1.890625 C 52.101562 -1.804688 52.078125 -1.726562 52.078125 -1.65625 C 52.078125 -1.46875 52.226562 -1.316406 52.53125 -1.203125 C 53.039062 -1.316406 53.613281 -1.601562 54.25 -2.0625 C 54.894531 -2.519531 55.4375 -2.914062 55.875 -3.25 C 56.789062 -3.90625 57.707031 -4.597656 58.625 -5.328125 C 59.539062 -6.066406 60.457031 -6.75 61.375 -7.375 C 62.40625 -8.070312 63.460938 -8.773438 64.546875 -9.484375 C 65.628906 -10.203125 66.703125 -10.910156 67.765625 -11.609375 C 69.265625 -12.597656 70.632812 -13.476562 71.875 -14.25 C 73.125 -15.019531 74.539062 -15.863281 76.125 -16.78125 C 77.289062 -17.4375 78.460938 -18.078125 79.640625 -18.703125 C 80.816406 -19.328125 81.972656 -19.929688 83.109375 -20.515625 C 84.054688 -20.953125 84.976562 -21.398438 85.875 -21.859375 C 86.78125 -22.316406 87.671875 -22.75 88.546875 -23.15625 C 89.578125 -23.664062 90.613281 -24.125 91.65625 -24.53125 C 92.695312 -24.9375 93.734375 -25.359375 94.765625 -25.796875 C 95.171875 -25.972656 95.507812 -26.132812 95.78125 -26.28125 C 96.050781 -26.4375 96.375 -26.585938 96.75 -26.734375 C 97.144531 -27.054688 97.535156 -27.390625 97.921875 -27.734375 C 98.304688 -28.085938 98.738281 -28.394531 99.21875 -28.65625 C 99.40625 -28.726562 99.578125 -28.816406 99.734375 -28.921875 C 99.898438 -29.035156 100.078125 -29.113281 100.265625 -29.15625 C 100.484375 -29.257812 100.703125 -29.3125 100.921875 -29.3125 C 101.210938 -29.3125 101.488281 -29.203125 101.75 -28.984375 C 102.15625 -28.765625 102.359375 -28.414062 102.359375 -27.9375 C 102.359375 -27.832031 102.320312 -27.664062 102.25 -27.4375 C 102.101562 -27.1875 101.898438 -26.929688 101.640625 -26.671875 C 101.378906 -26.421875 101.101562 -26.179688 100.8125 -25.953125 C 99.382812 -24.566406 97.953125 -23.175781 96.515625 -21.78125 C 95.085938 -20.382812 93.644531 -18.988281 92.1875 -17.59375 C 91.269531 -16.675781 90.394531 -15.734375 89.5625 -14.765625 C 88.738281 -13.796875 87.925781 -12.832031 87.125 -11.875 C 86.53125 -11.175781 85.976562 -10.488281 85.46875 -9.8125 C 84.957031 -9.132812 84.445312 -8.429688 83.9375 -7.703125 C 83.238281 -6.710938 82.59375 -5.6875 82 -4.625 C 81.414062 -3.5625 80.867188 -2.441406 80.359375 -1.265625 C 80.242188 -0.972656 80.140625 -0.613281 80.046875 -0.1875 C 79.960938 0.226562 79.921875 0.640625 79.921875 1.046875 C 79.921875 1.304688 79.9375 1.550781 79.96875 1.78125 C 80.007812 2.019531 80.082031 2.234375 80.1875 2.421875 C 80.59375 2.523438 80.941406 2.578125 81.234375 2.578125 C 81.785156 2.578125 82.351562 2.378906 82.9375 1.984375 C 83.75 1.578125 84.53125 1.144531 85.28125 0.6875 C 86.03125 0.226562 86.753906 -0.289062 87.453125 -0.875 C 88.441406 -1.71875 89.4375 -2.578125 90.4375 -3.453125 C 91.445312 -4.335938 92.46875 -5.238281 93.5 -6.15625 C 94.226562 -6.675781 94.90625 -7.203125 95.53125 -7.734375 C 96.15625 -8.265625 96.796875 -8.800781 97.453125 -9.34375 C 98.335938 -10.113281 99.238281 -10.882812 100.15625 -11.65625 C 101.070312 -12.425781 101.988281 -13.195312 102.90625 -13.96875 C 103.894531 -14.8125 104.910156 -15.609375 105.953125 -16.359375 C 107.003906 -17.109375 108.023438 -17.941406 109.015625 -18.859375 C 109.554688 -19.378906 110.148438 -19.867188 110.796875 -20.328125 C 111.441406 -20.785156 112.054688 -21.25 112.640625 -21.71875 C 113.265625 -22.195312 113.90625 -22.703125 114.5625 -23.234375 C 115.226562 -23.765625 115.90625 -24.304688 116.59375 -24.859375 C 117.1875 -25.265625 117.738281 -25.695312 118.25 -26.15625 C 118.757812 -26.613281 119.3125 -27.082031 119.90625 -27.5625 C 120.519531 -28.101562 121.164062 -28.628906 121.84375 -29.140625 C 122.53125 -29.660156 123.222656 -30.175781 123.921875 -30.6875 C 124.984375 -31.5 126.207031 -32.460938 127.59375 -33.578125 C 128.988281 -34.691406 130.238281 -35.632812 131.34375 -36.40625 C 132.070312 -36.957031 132.820312 -37.515625 133.59375 -38.078125 C 134.363281 -38.648438 135.171875 -39.15625 136.015625 -39.59375 C 137.078125 -40.550781 138.226562 -41.367188 139.46875 -42.046875 C 140.71875 -42.722656 141.914062 -43.484375 143.0625 -44.328125 C 143.53125 -44.691406 144.019531 -45.007812 144.53125 -45.28125 C 145.050781 -45.5625 145.585938 -45.832031 146.140625 -46.09375 C 146.984375 -46.53125 147.785156 -47.003906 148.546875 -47.515625 C 149.316406 -48.035156 150.144531 -48.457031 151.03125 -48.78125 C 151.101562 -48.820312 151.1875 -48.867188 151.28125 -48.921875 C 151.375 -48.972656 151.4375 -49.019531 151.46875 -49.0625 C 152.53125 -49.613281 153.601562 -50.171875 154.6875 -50.734375 C 155.769531 -51.304688 156.878906 -51.832031 158.015625 -52.3125 C 158.640625 -52.5625 159.269531 -52.851562 159.90625 -53.1875 C 160.550781 -53.519531 161.1875 -53.8125 161.8125 -54.0625 C 163.09375 -54.6875 164.382812 -55.226562 165.6875 -55.6875 C 166.988281 -56.144531 168.300781 -56.613281 169.625 -57.09375 C 170.90625 -57.570312 172.203125 -58.019531 173.515625 -58.4375 C 174.835938 -58.851562 176.144531 -59.226562 177.4375 -59.5625 C 178.457031 -59.820312 179.378906 -60.070312 180.203125 -60.3125 C 181.023438 -60.550781 182.097656 -60.6875 183.421875 -60.71875 C 184.046875 -60.9375 184.6875 -61.046875 185.34375 -61.046875 C 186.007812 -61.046875 186.65625 -61.117188 187.28125 -61.265625 C 187.457031 -61.335938 187.632812 -61.382812 187.8125 -61.40625 C 188 -61.425781 188.164062 -61.4375 188.3125 -61.4375 C 188.9375 -61.4375 189.453125 -61.453125 189.859375 -61.484375 C 190.265625 -61.523438 190.707031 -61.546875 191.1875 -61.546875 C 191.363281 -61.546875 191.539062 -61.546875 191.71875 -61.546875 C 191.90625 -61.546875 192.109375 -61.523438 192.328125 -61.484375 C 193.472656 -61.410156 194.601562 -61.289062 195.71875 -61.125 C 196.832031 -60.96875 197.941406 -60.703125 199.046875 -60.328125 C 200.441406 -59.859375 201.710938 -59.203125 202.859375 -58.359375 C 204.015625 -57.515625 205.035156 -56.503906 205.921875 -55.328125 C 206.328125 -54.773438 206.65625 -54.019531 206.90625 -53.0625 C 207.164062 -52.113281 207.296875 -51.144531 207.296875 -50.15625 C 207.296875 -49.832031 207.273438 -49.503906 207.234375 -49.171875 C 207.203125 -48.835938 207.148438 -48.523438 207.078125 -48.234375 C 206.710938 -46.441406 206.253906 -44.984375 205.703125 -43.859375 C 205.148438 -42.742188 204.609375 -41.847656 204.078125 -41.171875 C 203.546875 -40.492188 203.0625 -39.878906 202.625 -39.328125 C 202.550781 -39.285156 202.441406 -39.265625 202.296875 -39.265625 C 202.066406 -39.265625 201.953125 -39.335938 201.953125 -39.484375 C 201.953125 -39.628906 202.066406 -39.832031 202.296875 -40.09375 C 203.023438 -40.976562 203.691406 -41.867188 204.296875 -42.765625 C 204.898438 -43.660156 205.40625 -44.710938 205.8125 -45.921875 C 206.21875 -47.128906 206.472656 -48.613281 206.578125 -50.375 C 206.503906 -51.21875 206.421875 -51.96875 206.328125 -52.625 C 206.234375 -53.289062 205.992188 -53.960938 205.609375 -54.640625 C 205.234375 -55.316406 204.566406 -56.097656 203.609375 -56.984375 C 202.910156 -57.492188 202.222656 -57.976562 201.546875 -58.4375 C 200.867188 -58.894531 200.035156 -59.304688 199.046875 -59.671875 C 198.347656 -59.859375 197.613281 -60.0625 196.84375 -60.28125 C 196.070312 -60.5 195.320312 -60.59375 194.59375 -60.5625 C 193.75 -60.738281 192.867188 -60.828125 191.953125 -60.828125 C 191.765625 -60.828125 191.5625 -60.828125 191.34375 -60.828125 C 191.125 -60.828125 190.921875 -60.8125 190.734375 -60.78125 C 190.554688 -60.738281 190.191406 -60.726562 189.640625 -60.75 C 189.085938 -60.769531 188.644531 -60.78125 188.3125 -60.78125 C 187.726562 -60.664062 187.207031 -60.585938 186.75 -60.546875 C 186.289062 -60.515625 185.804688 -60.476562 185.296875 -60.4375 C 183.679688 -60.289062 182.382812 -60.082031 181.40625 -59.8125 C 180.4375 -59.539062 179.367188 -59.273438 178.203125 -59.015625 C 176.472656 -58.609375 174.765625 -58.128906 173.078125 -57.578125 C 171.398438 -57.035156 169.734375 -56.429688 168.078125 -55.765625 C 165.734375 -54.847656 163.394531 -53.867188 161.0625 -52.828125 C 158.738281 -51.785156 156.441406 -50.695312 154.171875 -49.5625 L 151.640625 -48.234375 C 151.304688 -48.085938 150.984375 -47.941406 150.671875 -47.796875 C 150.359375 -47.648438 150.054688 -47.429688 149.765625 -47.140625 C 149.648438 -47.023438 149.507812 -46.929688 149.34375 -46.859375 C 149.1875 -46.785156 149.035156 -46.710938 148.890625 -46.640625 C 148.078125 -46.234375 147.273438 -45.789062 146.484375 -45.3125 C 145.703125 -44.84375 144.925781 -44.347656 144.15625 -43.828125 C 143.894531 -43.679688 143.644531 -43.523438 143.40625 -43.359375 C 143.175781 -43.203125 142.929688 -43.066406 142.671875 -42.953125 C 141.859375 -42.585938 141.09375 -42.140625 140.375 -41.609375 C 139.664062 -41.078125 138.945312 -40.570312 138.21875 -40.09375 C 138.070312 -39.988281 137.925781 -39.890625 137.78125 -39.796875 C 137.632812 -39.703125 137.484375 -39.597656 137.328125 -39.484375 C 135.753906 -38.460938 134.253906 -37.4375 132.828125 -36.40625 C 131.398438 -35.382812 129.929688 -34.304688 128.421875 -33.171875 C 127.765625 -32.648438 127.085938 -32.140625 126.390625 -31.640625 C 125.691406 -31.148438 125.03125 -30.648438 124.40625 -30.140625 C 123.894531 -29.773438 123.375 -29.363281 122.84375 -28.90625 C 122.3125 -28.445312 121.769531 -28 121.21875 -27.5625 C 121.03125 -27.40625 120.804688 -27.226562 120.546875 -27.03125 C 120.296875 -26.832031 120.046875 -26.640625 119.796875 -26.453125 C 118.984375 -25.828125 118.171875 -25.1875 117.359375 -24.53125 C 116.554688 -23.875 115.734375 -23.234375 114.890625 -22.609375 C 114.304688 -22.128906 113.726562 -21.664062 113.15625 -21.21875 C 112.59375 -20.78125 112.035156 -20.363281 111.484375 -19.96875 C 110.898438 -19.488281 110.304688 -19 109.703125 -18.5 C 109.097656 -18.007812 108.484375 -17.546875 107.859375 -17.109375 C 107.304688 -16.628906 106.734375 -16.160156 106.140625 -15.703125 C 105.554688 -15.242188 104.972656 -14.796875 104.390625 -14.359375 L 101.421875 -11.875 C 100.578125 -11.21875 99.75 -10.539062 98.9375 -9.84375 C 98.132812 -9.144531 97.332031 -8.445312 96.53125 -7.75 C 95.9375 -7.28125 95.351562 -6.816406 94.78125 -6.359375 C 94.21875 -5.898438 93.660156 -5.429688 93.109375 -4.953125 C 92.785156 -4.734375 92.515625 -4.515625 92.296875 -4.296875 C 91.078125 -3.265625 89.863281 -2.234375 88.65625 -1.203125 C 87.445312 -0.179688 86.144531 0.769531 84.75 1.65625 C 84.28125 1.945312 83.796875 2.210938 83.296875 2.453125 C 82.804688 2.691406 82.285156 2.921875 81.734375 3.140625 C 81.328125 3.285156 80.957031 3.359375 80.625 3.359375 Z M 80.625 3.359375 "/></g></g></g><g fill="#dddaba" fill-opacity="1"><g transform="translate(186.180068, 257.73407)"><g><path d="M 8.796875 -2.03125 C 7.992188 -2.03125 7.28125 -2.234375 6.65625 -2.640625 C 5.84375 -3.335938 5.4375 -4.234375 5.4375 -5.328125 C 5.4375 -5.554688 5.460938 -5.785156 5.515625 -6.015625 C 5.578125 -6.253906 5.628906 -6.503906 5.671875 -6.765625 C 5.742188 -7.054688 5.84375 -7.363281 5.96875 -7.6875 C 6.09375 -8.019531 6.210938 -8.316406 6.328125 -8.578125 L 6.65625 -9.078125 C 6.84375 -9.367188 7.300781 -10.019531 8.03125 -11.03125 C 8.757812 -12.039062 9.53125 -13.019531 10.34375 -13.96875 C 9.382812 -13.269531 8.492188 -12.585938 7.671875 -11.921875 C 6.847656 -11.265625 5.957031 -10.570312 5 -9.84375 C 4.5625 -9.507812 4.210938 -9.234375 3.953125 -9.015625 C 3.703125 -8.796875 3.359375 -8.539062 2.921875 -8.25 C 2.253906 -7.769531 1.691406 -7.398438 1.234375 -7.140625 C 0.773438 -6.890625 0.34375 -6.671875 -0.0625 -6.484375 C -0.3125 -6.410156 -0.5625 -6.335938 -0.8125 -6.265625 C -1.070312 -6.191406 -1.351562 -6.15625 -1.65625 -6.15625 C -1.757812 -6.15625 -1.863281 -6.164062 -1.96875 -6.1875 C -2.082031 -6.207031 -2.210938 -6.234375 -2.359375 -6.265625 C -2.691406 -6.378906 -2.941406 -6.609375 -3.109375 -6.953125 C -3.273438 -7.304688 -3.359375 -7.703125 -3.359375 -8.140625 C -3.359375 -8.328125 -3.347656 -8.5 -3.328125 -8.65625 C -3.304688 -8.820312 -3.28125 -8.976562 -3.25 -9.125 C -2.914062 -10.445312 -2.289062 -11.660156 -1.375 -12.765625 C -0.644531 -13.640625 0.101562 -14.476562 0.875 -15.28125 C 1.644531 -16.09375 2.507812 -16.8125 3.46875 -17.4375 C 4.125 -17.875 4.804688 -18.238281 5.515625 -18.53125 C 6.234375 -18.820312 6.960938 -19.0625 7.703125 -19.25 C 7.878906 -19.320312 8.0625 -19.359375 8.25 -19.359375 C 8.4375 -19.359375 8.617188 -19.359375 8.796875 -19.359375 C 9.609375 -19.359375 10.363281 -19.175781 11.0625 -18.8125 C 11.382812 -18.59375 11.75 -18.304688 12.15625 -17.953125 C 12.5625 -17.609375 12.851562 -17.179688 13.03125 -16.671875 L 12.984375 -16.609375 C 13.492188 -17.015625 13.992188 -17.425781 14.484375 -17.84375 C 14.984375 -18.269531 15.472656 -18.664062 15.953125 -19.03125 C 16.316406 -19.289062 16.679688 -19.519531 17.046875 -19.71875 C 17.410156 -19.914062 17.832031 -19.976562 18.3125 -19.90625 C 18.75 -19.726562 18.96875 -19.378906 18.96875 -18.859375 C 18.96875 -18.785156 18.96875 -18.691406 18.96875 -18.578125 C 18.96875 -18.472656 18.953125 -18.382812 18.921875 -18.3125 C 18.734375 -17.945312 18.460938 -17.625 18.109375 -17.34375 C 17.765625 -17.070312 17.445312 -16.789062 17.15625 -16.5 C 16.789062 -16.164062 16.425781 -15.84375 16.0625 -15.53125 C 15.695312 -15.21875 15.3125 -14.914062 14.90625 -14.625 C 14.0625 -13.96875 13.28125 -13.289062 12.5625 -12.59375 C 11.851562 -11.894531 11.113281 -11.125 10.34375 -10.28125 C 10.050781 -9.957031 9.800781 -9.691406 9.59375 -9.484375 C 9.394531 -9.285156 9.222656 -9.09375 9.078125 -8.90625 C 8.960938 -8.800781 8.859375 -8.691406 8.765625 -8.578125 C 8.679688 -8.472656 8.601562 -8.363281 8.53125 -8.25 C 8.382812 -8.101562 8.253906 -7.925781 8.140625 -7.71875 C 8.023438 -7.519531 7.894531 -7.3125 7.75 -7.09375 C 7.570312 -6.832031 7.410156 -6.53125 7.265625 -6.1875 C 7.117188 -5.84375 7.007812 -5.503906 6.9375 -5.171875 C 6.820312 -4.910156 6.765625 -4.597656 6.765625 -4.234375 C 6.765625 -3.753906 6.910156 -3.367188 7.203125 -3.078125 C 7.421875 -2.898438 7.6875 -2.769531 8 -2.6875 C 8.3125 -2.613281 8.613281 -2.578125 8.90625 -2.578125 C 9.3125 -2.578125 9.6875 -2.613281 10.03125 -2.6875 C 10.382812 -2.769531 10.6875 -2.863281 10.9375 -2.96875 C 11.75 -3.257812 12.390625 -3.535156 12.859375 -3.796875 C 13.335938 -4.054688 14.019531 -4.421875 14.90625 -4.890625 C 15.382812 -5.109375 15.738281 -5.289062 15.96875 -5.4375 C 16.207031 -5.59375 16.492188 -5.757812 16.828125 -5.9375 C 17.117188 -6.125 17.554688 -6.390625 18.140625 -6.734375 C 18.734375 -7.085938 19.367188 -7.472656 20.046875 -7.890625 C 20.722656 -8.316406 21.335938 -8.710938 21.890625 -9.078125 C 22.441406 -9.441406 22.828125 -9.695312 23.046875 -9.84375 C 23.773438 -10.351562 24.539062 -10.898438 25.34375 -11.484375 C 26.15625 -12.078125 26.96875 -12.664062 27.78125 -13.25 C 27.957031 -13.394531 28.15625 -13.550781 28.375 -13.71875 C 28.59375 -13.882812 28.78125 -13.953125 28.9375 -13.921875 C 29.113281 -13.765625 29.148438 -13.597656 29.046875 -13.421875 L 28.546875 -13.03125 C 27.734375 -12.445312 26.820312 -11.785156 25.8125 -11.046875 C 24.8125 -10.316406 23.816406 -9.601562 22.828125 -8.90625 C 21.835938 -8.207031 20.957031 -7.625 20.1875 -7.15625 C 19.082031 -6.488281 17.960938 -5.84375 16.828125 -5.21875 C 15.691406 -4.601562 14.5 -3.960938 13.25 -3.296875 C 13 -3.191406 12.753906 -3.070312 12.515625 -2.9375 C 12.273438 -2.8125 12.007812 -2.710938 11.71875 -2.640625 C 11.28125 -2.492188 10.8125 -2.351562 10.3125 -2.21875 C 9.8125 -2.09375 9.304688 -2.03125 8.796875 -2.03125 Z M -1.3125 -6.765625 C -1.207031 -6.765625 -1.007812 -6.800781 -0.71875 -6.875 C -0.0195312 -7.132812 0.703125 -7.5 1.453125 -7.96875 C 2.203125 -8.445312 2.875 -8.925781 3.46875 -9.40625 C 4.382812 -10.132812 5.234375 -10.800781 6.015625 -11.40625 C 6.804688 -12.007812 7.570312 -12.585938 8.3125 -13.140625 C 8.925781 -13.585938 9.554688 -14.046875 10.203125 -14.515625 C 10.847656 -14.992188 11.515625 -15.523438 12.203125 -16.109375 C 12.054688 -16.410156 11.707031 -16.625 11.15625 -16.75 C 10.613281 -16.875 10.234375 -16.898438 10.015625 -16.828125 C 9.390625 -16.722656 8.765625 -16.585938 8.140625 -16.421875 C 7.515625 -16.253906 6.910156 -16.003906 6.328125 -15.671875 C 4.898438 -14.898438 3.535156 -13.890625 2.234375 -12.640625 C 0.929688 -11.398438 -0.140625 -10.300781 -0.984375 -9.34375 C -1.359375 -8.976562 -1.617188 -8.628906 -1.765625 -8.296875 C -1.910156 -7.972656 -1.984375 -7.679688 -1.984375 -7.421875 C -1.984375 -6.984375 -1.757812 -6.765625 -1.3125 -6.765625 Z M -1.3125 -6.765625 "/></g></g></g><g fill="#dddaba" fill-opacity="1"><g transform="translate(213.842999, 257.73407)"><g><path d="M 52.421875 -48.84375 C 52.597656 -48.695312 52.734375 -48.53125 52.828125 -48.34375 C 52.921875 -48.15625 52.984375 -47.988281 53.015625 -47.84375 C 52.984375 -46.601562 52.65625 -45.539062 52.03125 -44.65625 C 51.40625 -43.78125 50.726562 -42.957031 50 -42.1875 C 49.445312 -41.601562 48.859375 -41.0625 48.234375 -40.5625 C 47.609375 -40.0625 47.019531 -39.539062 46.46875 -39 C 45.695312 -38.375 45.101562 -37.867188 44.6875 -37.484375 C 44.269531 -37.097656 43.675781 -36.59375 42.90625 -35.96875 C 42.644531 -35.707031 42.253906 -35.429688 41.734375 -35.140625 C 41.222656 -34.847656 40.820312 -34.570312 40.53125 -34.3125 C 39.976562 -33.914062 39.410156 -33.539062 38.828125 -33.1875 C 38.242188 -32.84375 37.65625 -32.488281 37.0625 -32.125 L 35.6875 -31.234375 C 34.664062 -30.691406 33.613281 -30.171875 32.53125 -29.671875 C 31.445312 -29.179688 30.375 -28.675781 29.3125 -28.15625 C 27.84375 -27.53125 26.335938 -27.003906 24.796875 -26.578125 C 23.265625 -26.160156 21.742188 -25.734375 20.234375 -25.296875 C 19.867188 -25.222656 19.519531 -25.128906 19.1875 -25.015625 C 18.863281 -24.910156 18.519531 -24.820312 18.15625 -24.75 C 17.53125 -24.601562 16.882812 -24.460938 16.21875 -24.328125 C 15.5625 -24.203125 14.921875 -24.101562 14.296875 -24.03125 C 13.453125 -23.925781 12.71875 -23.597656 12.09375 -23.046875 C 10.738281 -21.910156 9.425781 -20.726562 8.15625 -19.5 C 6.894531 -18.269531 5.679688 -16.992188 4.515625 -15.671875 C 3.890625 -14.972656 3.242188 -14.273438 2.578125 -13.578125 C 1.921875 -12.890625 1.300781 -12.160156 0.71875 -11.390625 C 0.351562 -10.910156 -0.0078125 -10.457031 -0.375 -10.03125 C -0.75 -9.613281 -1.101562 -9.148438 -1.4375 -8.640625 C -2.425781 -7.128906 -3.117188 -5.492188 -3.515625 -3.734375 C -3.484375 -3.335938 -3.363281 -2.988281 -3.15625 -2.6875 C -2.957031 -2.394531 -2.726562 -2.125 -2.46875 -1.875 C -1.957031 -1.46875 -1.410156 -1.265625 -0.828125 -1.265625 C -0.609375 -1.265625 -0.441406 -1.28125 -0.328125 -1.3125 C 0.847656 -1.539062 1.992188 -1.835938 3.109375 -2.203125 C 4.222656 -2.566406 5.332031 -2.96875 6.4375 -3.40625 C 7.71875 -3.957031 8.972656 -4.535156 10.203125 -5.140625 C 11.429688 -5.742188 12.671875 -6.378906 13.921875 -7.046875 C 14.679688 -7.441406 15.425781 -7.882812 16.15625 -8.375 C 16.894531 -8.875 17.613281 -9.382812 18.3125 -9.90625 C 19.082031 -10.414062 19.851562 -10.984375 20.625 -11.609375 C 21.394531 -12.234375 22.164062 -12.78125 22.9375 -13.25 C 23.113281 -13.363281 23.265625 -13.472656 23.390625 -13.578125 C 23.523438 -13.691406 23.6875 -13.804688 23.875 -13.921875 C 23.976562 -13.921875 24.085938 -13.804688 24.203125 -13.578125 C 24.203125 -13.429688 24.070312 -13.265625 23.8125 -13.078125 C 23.5625 -12.898438 23.359375 -12.757812 23.203125 -12.65625 C 21.742188 -11.550781 20.304688 -10.484375 18.890625 -9.453125 C 17.484375 -8.429688 15.972656 -7.441406 14.359375 -6.484375 C 13.109375 -5.785156 11.832031 -5.132812 10.53125 -4.53125 C 9.226562 -3.925781 7.9375 -3.332031 6.65625 -2.75 C 5.625 -2.3125 4.566406 -1.90625 3.484375 -1.53125 C 2.410156 -1.164062 1.320312 -0.875 0.21875 -0.65625 C 0.03125 -0.625 -0.160156 -0.597656 -0.359375 -0.578125 C -0.554688 -0.554688 -0.75 -0.546875 -0.9375 -0.546875 C -1.445312 -0.546875 -1.921875 -0.617188 -2.359375 -0.765625 C -3.242188 -1.054688 -3.90625 -1.539062 -4.34375 -2.21875 C -4.78125 -2.90625 -5 -3.648438 -5 -4.453125 C -5 -4.816406 -4.945312 -5.1875 -4.84375 -5.5625 C -4.101562 -8.488281 -2.800781 -11.070312 -0.9375 -13.3125 C -0.425781 -13.96875 0.101562 -14.613281 0.65625 -15.25 C 1.207031 -15.894531 1.757812 -16.550781 2.3125 -17.21875 C 2.53125 -17.4375 2.675781 -17.597656 2.75 -17.703125 L 7.75 -22.984375 C 7.789062 -23.054688 7.898438 -23.15625 8.078125 -23.28125 C 8.265625 -23.414062 8.378906 -23.519531 8.421875 -23.59375 L 10.5625 -25.515625 C 11.363281 -26.328125 12.195312 -27.085938 13.0625 -27.796875 C 13.925781 -28.515625 14.78125 -29.238281 15.625 -29.96875 C 16.539062 -30.738281 17.472656 -31.5 18.421875 -32.25 C 19.378906 -33.007812 20.332031 -33.753906 21.28125 -34.484375 C 22.382812 -35.328125 23.519531 -36.132812 24.6875 -36.90625 C 25.863281 -37.675781 27.039062 -38.445312 28.21875 -39.21875 C 28.582031 -39.46875 28.957031 -39.691406 29.34375 -39.890625 C 29.726562 -40.097656 30.101562 -40.332031 30.46875 -40.59375 C 31.53125 -41.21875 32.570312 -41.8125 33.59375 -42.375 C 34.625 -42.945312 35.632812 -43.507812 36.625 -44.0625 C 38.207031 -44.9375 39.765625 -45.738281 41.296875 -46.46875 C 42.835938 -47.207031 44.398438 -47.890625 45.984375 -48.515625 C 46.929688 -48.835938 47.882812 -49.109375 48.84375 -49.328125 C 49.0625 -49.367188 49.28125 -49.394531 49.5 -49.40625 C 49.71875 -49.425781 49.9375 -49.4375 50.15625 -49.4375 C 50.96875 -49.4375 51.722656 -49.238281 52.421875 -48.84375 Z M 51.8125 -45.984375 C 51.882812 -46.128906 51.984375 -46.347656 52.109375 -46.640625 C 52.242188 -46.929688 52.234375 -47.207031 52.078125 -47.46875 C 51.859375 -47.539062 51.695312 -47.578125 51.59375 -47.578125 C 51.1875 -47.578125 50.734375 -47.472656 50.234375 -47.265625 C 49.742188 -47.066406 49.351562 -46.929688 49.0625 -46.859375 C 48.476562 -46.640625 47.875 -46.410156 47.25 -46.171875 C 46.625 -45.929688 46.019531 -45.664062 45.4375 -45.375 C 44.257812 -44.789062 43.09375 -44.1875 41.9375 -43.5625 C 40.78125 -42.9375 39.613281 -42.3125 38.4375 -41.6875 C 37.34375 -41.101562 36.265625 -40.5 35.203125 -39.875 C 34.140625 -39.25 33.078125 -38.625 32.015625 -38 C 31.421875 -37.675781 30.835938 -37.320312 30.265625 -36.9375 C 29.703125 -36.550781 29.128906 -36.175781 28.546875 -35.8125 C 27.992188 -35.4375 27.441406 -35.066406 26.890625 -34.703125 C 26.335938 -34.335938 25.804688 -33.972656 25.296875 -33.609375 C 24.304688 -32.910156 23.328125 -32.203125 22.359375 -31.484375 C 21.390625 -30.773438 20.425781 -30.035156 19.46875 -29.265625 C 18.84375 -28.742188 18.203125 -28.226562 17.546875 -27.71875 C 16.890625 -27.207031 16.25 -26.695312 15.625 -26.1875 C 15.4375 -26.03125 15.238281 -25.859375 15.03125 -25.671875 C 14.832031 -25.492188 14.660156 -25.257812 14.515625 -24.96875 C 14.878906 -24.96875 15.234375 -24.984375 15.578125 -25.015625 C 15.929688 -25.054688 16.296875 -25.113281 16.671875 -25.1875 C 17.984375 -25.40625 19.28125 -25.679688 20.5625 -26.015625 C 21.851562 -26.347656 23.15625 -26.734375 24.46875 -27.171875 C 24.726562 -27.242188 24.984375 -27.328125 25.234375 -27.421875 C 25.492188 -27.515625 25.753906 -27.597656 26.015625 -27.671875 C 27.046875 -28.035156 28.0625 -28.445312 29.0625 -28.90625 C 30.070312 -29.363281 31.054688 -29.8125 32.015625 -30.25 C 33.179688 -30.757812 34.269531 -31.304688 35.28125 -31.890625 C 36.289062 -32.484375 37.382812 -33.179688 38.5625 -33.984375 C 38.632812 -34.023438 38.707031 -34.070312 38.78125 -34.125 C 38.851562 -34.175781 38.925781 -34.222656 39 -34.265625 C 39.945312 -34.847656 40.941406 -35.539062 41.984375 -36.34375 C 43.035156 -37.15625 44.019531 -37.96875 44.9375 -38.78125 C 45.707031 -39.46875 46.46875 -40.125 47.21875 -40.75 C 47.96875 -41.375 48.691406 -42.035156 49.390625 -42.734375 C 49.828125 -43.171875 50.273438 -43.671875 50.734375 -44.234375 C 51.191406 -44.804688 51.550781 -45.390625 51.8125 -45.984375 Z M 51.8125 -45.984375 "/></g></g></g><g fill="#dddaba" fill-opacity="1"><g transform="translate(236.666294, 257.73407)"><g><path d="M 52.421875 -48.84375 C 52.597656 -48.695312 52.734375 -48.53125 52.828125 -48.34375 C 52.921875 -48.15625 52.984375 -47.988281 53.015625 -47.84375 C 52.984375 -46.601562 52.65625 -45.539062 52.03125 -44.65625 C 51.40625 -43.78125 50.726562 -42.957031 50 -42.1875 C 49.445312 -41.601562 48.859375 -41.0625 48.234375 -40.5625 C 47.609375 -40.0625 47.019531 -39.539062 46.46875 -39 C 45.695312 -38.375 45.101562 -37.867188 44.6875 -37.484375 C 44.269531 -37.097656 43.675781 -36.59375 42.90625 -35.96875 C 42.644531 -35.707031 42.253906 -35.429688 41.734375 -35.140625 C 41.222656 -34.847656 40.820312 -34.570312 40.53125 -34.3125 C 39.976562 -33.914062 39.410156 -33.539062 38.828125 -33.1875 C 38.242188 -32.84375 37.65625 -32.488281 37.0625 -32.125 L 35.6875 -31.234375 C 34.664062 -30.691406 33.613281 -30.171875 32.53125 -29.671875 C 31.445312 -29.179688 30.375 -28.675781 29.3125 -28.15625 C 27.84375 -27.53125 26.335938 -27.003906 24.796875 -26.578125 C 23.265625 -26.160156 21.742188 -25.734375 20.234375 -25.296875 C 19.867188 -25.222656 19.519531 -25.128906 19.1875 -25.015625 C 18.863281 -24.910156 18.519531 -24.820312 18.15625 -24.75 C 17.53125 -24.601562 16.882812 -24.460938 16.21875 -24.328125 C 15.5625 -24.203125 14.921875 -24.101562 14.296875 -24.03125 C 13.453125 -23.925781 12.71875 -23.597656 12.09375 -23.046875 C 10.738281 -21.910156 9.425781 -20.726562 8.15625 -19.5 C 6.894531 -18.269531 5.679688 -16.992188 4.515625 -15.671875 C 3.890625 -14.972656 3.242188 -14.273438 2.578125 -13.578125 C 1.921875 -12.890625 1.300781 -12.160156 0.71875 -11.390625 C 0.351562 -10.910156 -0.0078125 -10.457031 -0.375 -10.03125 C -0.75 -9.613281 -1.101562 -9.148438 -1.4375 -8.640625 C -2.425781 -7.128906 -3.117188 -5.492188 -3.515625 -3.734375 C -3.484375 -3.335938 -3.363281 -2.988281 -3.15625 -2.6875 C -2.957031 -2.394531 -2.726562 -2.125 -2.46875 -1.875 C -1.957031 -1.46875 -1.410156 -1.265625 -0.828125 -1.265625 C -0.609375 -1.265625 -0.441406 -1.28125 -0.328125 -1.3125 C 0.847656 -1.539062 1.992188 -1.835938 3.109375 -2.203125 C 4.222656 -2.566406 5.332031 -2.96875 6.4375 -3.40625 C 7.71875 -3.957031 8.972656 -4.535156 10.203125 -5.140625 C 11.429688 -5.742188 12.671875 -6.378906 13.921875 -7.046875 C 14.679688 -7.441406 15.425781 -7.882812 16.15625 -8.375 C 16.894531 -8.875 17.613281 -9.382812 18.3125 -9.90625 C 19.082031 -10.414062 19.851562 -10.984375 20.625 -11.609375 C 21.394531 -12.234375 22.164062 -12.78125 22.9375 -13.25 C 23.113281 -13.363281 23.265625 -13.472656 23.390625 -13.578125 C 23.523438 -13.691406 23.6875 -13.804688 23.875 -13.921875 C 23.976562 -13.921875 24.085938 -13.804688 24.203125 -13.578125 C 24.203125 -13.429688 24.070312 -13.265625 23.8125 -13.078125 C 23.5625 -12.898438 23.359375 -12.757812 23.203125 -12.65625 C 21.742188 -11.550781 20.304688 -10.484375 18.890625 -9.453125 C 17.484375 -8.429688 15.972656 -7.441406 14.359375 -6.484375 C 13.109375 -5.785156 11.832031 -5.132812 10.53125 -4.53125 C 9.226562 -3.925781 7.9375 -3.332031 6.65625 -2.75 C 5.625 -2.3125 4.566406 -1.90625 3.484375 -1.53125 C 2.410156 -1.164062 1.320312 -0.875 0.21875 -0.65625 C 0.03125 -0.625 -0.160156 -0.597656 -0.359375 -0.578125 C -0.554688 -0.554688 -0.75 -0.546875 -0.9375 -0.546875 C -1.445312 -0.546875 -1.921875 -0.617188 -2.359375 -0.765625 C -3.242188 -1.054688 -3.90625 -1.539062 -4.34375 -2.21875 C -4.78125 -2.90625 -5 -3.648438 -5 -4.453125 C -5 -4.816406 -4.945312 -5.1875 -4.84375 -5.5625 C -4.101562 -8.488281 -2.800781 -11.070312 -0.9375 -13.3125 C -0.425781 -13.96875 0.101562 -14.613281 0.65625 -15.25 C 1.207031 -15.894531 1.757812 -16.550781 2.3125 -17.21875 C 2.53125 -17.4375 2.675781 -17.597656 2.75 -17.703125 L 7.75 -22.984375 C 7.789062 -23.054688 7.898438 -23.15625 8.078125 -23.28125 C 8.265625 -23.414062 8.378906 -23.519531 8.421875 -23.59375 L 10.5625 -25.515625 C 11.363281 -26.328125 12.195312 -27.085938 13.0625 -27.796875 C 13.925781 -28.515625 14.78125 -29.238281 15.625 -29.96875 C 16.539062 -30.738281 17.472656 -31.5 18.421875 -32.25 C 19.378906 -33.007812 20.332031 -33.753906 21.28125 -34.484375 C 22.382812 -35.328125 23.519531 -36.132812 24.6875 -36.90625 C 25.863281 -37.675781 27.039062 -38.445312 28.21875 -39.21875 C 28.582031 -39.46875 28.957031 -39.691406 29.34375 -39.890625 C 29.726562 -40.097656 30.101562 -40.332031 30.46875 -40.59375 C 31.53125 -41.21875 32.570312 -41.8125 33.59375 -42.375 C 34.625 -42.945312 35.632812 -43.507812 36.625 -44.0625 C 38.207031 -44.9375 39.765625 -45.738281 41.296875 -46.46875 C 42.835938 -47.207031 44.398438 -47.890625 45.984375 -48.515625 C 46.929688 -48.835938 47.882812 -49.109375 48.84375 -49.328125 C 49.0625 -49.367188 49.28125 -49.394531 49.5 -49.40625 C 49.71875 -49.425781 49.9375 -49.4375 50.15625 -49.4375 C 50.96875 -49.4375 51.722656 -49.238281 52.421875 -48.84375 Z M 51.8125 -45.984375 C 51.882812 -46.128906 51.984375 -46.347656 52.109375 -46.640625 C 52.242188 -46.929688 52.234375 -47.207031 52.078125 -47.46875 C 51.859375 -47.539062 51.695312 -47.578125 51.59375 -47.578125 C 51.1875 -47.578125 50.734375 -47.472656 50.234375 -47.265625 C 49.742188 -47.066406 49.351562 -46.929688 49.0625 -46.859375 C 48.476562 -46.640625 47.875 -46.410156 47.25 -46.171875 C 46.625 -45.929688 46.019531 -45.664062 45.4375 -45.375 C 44.257812 -44.789062 43.09375 -44.1875 41.9375 -43.5625 C 40.78125 -42.9375 39.613281 -42.3125 38.4375 -41.6875 C 37.34375 -41.101562 36.265625 -40.5 35.203125 -39.875 C 34.140625 -39.25 33.078125 -38.625 32.015625 -38 C 31.421875 -37.675781 30.835938 -37.320312 30.265625 -36.9375 C 29.703125 -36.550781 29.128906 -36.175781 28.546875 -35.8125 C 27.992188 -35.4375 27.441406 -35.066406 26.890625 -34.703125 C 26.335938 -34.335938 25.804688 -33.972656 25.296875 -33.609375 C 24.304688 -32.910156 23.328125 -32.203125 22.359375 -31.484375 C 21.390625 -30.773438 20.425781 -30.035156 19.46875 -29.265625 C 18.84375 -28.742188 18.203125 -28.226562 17.546875 -27.71875 C 16.890625 -27.207031 16.25 -26.695312 15.625 -26.1875 C 15.4375 -26.03125 15.238281 -25.859375 15.03125 -25.671875 C 14.832031 -25.492188 14.660156 -25.257812 14.515625 -24.96875 C 14.878906 -24.96875 15.234375 -24.984375 15.578125 -25.015625 C 15.929688 -25.054688 16.296875 -25.113281 16.671875 -25.1875 C 17.984375 -25.40625 19.28125 -25.679688 20.5625 -26.015625 C 21.851562 -26.347656 23.15625 -26.734375 24.46875 -27.171875 C 24.726562 -27.242188 24.984375 -27.328125 25.234375 -27.421875 C 25.492188 -27.515625 25.753906 -27.597656 26.015625 -27.671875 C 27.046875 -28.035156 28.0625 -28.445312 29.0625 -28.90625 C 30.070312 -29.363281 31.054688 -29.8125 32.015625 -30.25 C 33.179688 -30.757812 34.269531 -31.304688 35.28125 -31.890625 C 36.289062 -32.484375 37.382812 -33.179688 38.5625 -33.984375 C 38.632812 -34.023438 38.707031 -34.070312 38.78125 -34.125 C 38.851562 -34.175781 38.925781 -34.222656 39 -34.265625 C 39.945312 -34.847656 40.941406 -35.539062 41.984375 -36.34375 C 43.035156 -37.15625 44.019531 -37.96875 44.9375 -38.78125 C 45.707031 -39.46875 46.46875 -40.125 47.21875 -40.75 C 47.96875 -41.375 48.691406 -42.035156 49.390625 -42.734375 C 49.828125 -43.171875 50.273438 -43.671875 50.734375 -44.234375 C 51.191406 -44.804688 51.550781 -45.390625 51.8125 -45.984375 Z M 51.8125 -45.984375 "/></g></g></g><g mask="url(#5bf37430bd)"><g transform="matrix(1, 0, 0, 1, 271, 231)"><g clip-path="url(#47cc93137b)"><g fill="#dddaba" fill-opacity="1"><g transform="translate(0.325641, 18.234051)"><g><path d="M 1.703125 -12.734375 L 8.265625 -12.734375 L 8.265625 -11.5 L 3.046875 -11.5 L 3.046875 -6.84375 L 7.03125 -6.84375 L 7.03125 -5.609375 L 3.046875 -5.609375 L 3.046875 0 L 1.703125 0 Z M 1.703125 -12.734375 "/></g></g></g><g fill="#dddaba" fill-opacity="1"><g transform="translate(10.431863, 18.234051)"><g><path d="M 4.765625 0.1875 C 3.910156 0.1875 3.117188 -0.015625 2.390625 -0.421875 C 1.660156 -0.835938 1.050781 -1.429688 0.5625 -2.203125 L 1.59375 -3.046875 C 2.476562 -1.703125 3.539062 -1.03125 4.78125 -1.03125 C 5.53125 -1.03125 6.132812 -1.226562 6.59375 -1.625 C 7.050781 -2.03125 7.28125 -2.570312 7.28125 -3.25 C 7.28125 -3.832031 7.070312 -4.332031 6.65625 -4.75 C 6.25 -5.164062 5.585938 -5.554688 4.671875 -5.921875 C 3.515625 -6.367188 2.679688 -6.890625 2.171875 -7.484375 C 1.660156 -8.078125 1.40625 -8.785156 1.40625 -9.609375 C 1.40625 -10.109375 1.488281 -10.5625 1.65625 -10.96875 C 1.820312 -11.375 2.054688 -11.71875 2.359375 -12 C 2.660156 -12.289062 3.019531 -12.515625 3.4375 -12.671875 C 3.863281 -12.835938 4.335938 -12.921875 4.859375 -12.921875 C 6.316406 -12.921875 7.519531 -12.273438 8.46875 -10.984375 L 7.453125 -10.140625 C 7.066406 -10.671875 6.660156 -11.0625 6.234375 -11.3125 C 5.816406 -11.5625 5.351562 -11.6875 4.84375 -11.6875 C 4.195312 -11.6875 3.679688 -11.507812 3.296875 -11.15625 C 2.921875 -10.800781 2.734375 -10.328125 2.734375 -9.734375 C 2.734375 -9.160156 2.925781 -8.671875 3.3125 -8.265625 C 3.695312 -7.867188 4.34375 -7.492188 5.25 -7.140625 C 6.394531 -6.703125 7.238281 -6.175781 7.78125 -5.5625 C 8.332031 -4.945312 8.609375 -4.210938 8.609375 -3.359375 C 8.609375 -2.835938 8.507812 -2.359375 8.3125 -1.921875 C 8.125 -1.484375 7.859375 -1.109375 7.515625 -0.796875 C 7.179688 -0.484375 6.78125 -0.238281 6.3125 -0.0625 C 5.84375 0.101562 5.328125 0.1875 4.765625 0.1875 Z M 4.765625 0.1875 "/></g></g></g><g fill="#dddaba" fill-opacity="1"><g transform="translate(21.069983, 18.234051)"><g><path d="M 1.703125 -12.734375 L 4.75 -12.734375 C 5.382812 -12.734375 5.96875 -12.632812 6.5 -12.4375 C 7.039062 -12.25 7.503906 -11.984375 7.890625 -11.640625 C 8.273438 -11.304688 8.578125 -10.90625 8.796875 -10.4375 C 9.015625 -9.96875 9.125 -9.453125 9.125 -8.890625 C 9.125 -8.335938 9.015625 -7.828125 8.796875 -7.359375 C 8.578125 -6.890625 8.273438 -6.484375 7.890625 -6.140625 C 7.503906 -5.796875 7.039062 -5.523438 6.5 -5.328125 C 5.96875 -5.140625 5.382812 -5.046875 4.75 -5.046875 L 3.046875 -5.046875 L 3.046875 0 L 1.703125 0 Z M 4.75 -6.28125 C 5.664062 -6.28125 6.398438 -6.519531 6.953125 -7 C 7.515625 -7.476562 7.796875 -8.113281 7.796875 -8.90625 C 7.796875 -9.695312 7.515625 -10.328125 6.953125 -10.796875 C 6.398438 -11.265625 5.664062 -11.5 4.75 -11.5 L 3.046875 -11.5 L 3.046875 -6.28125 Z M 4.75 -6.28125 "/></g></g></g><g fill="#dddaba" fill-opacity="1"><g transform="translate(32.126018, 18.234051)"><g><path d="M 5.421875 -13.109375 L 5.796875 -13.109375 L 10.640625 0 L 9.171875 0 L 7.984375 -3.34375 L 3.15625 -3.34375 L 1.953125 0 L 0.5625 0 Z M 7.546875 -4.578125 L 5.5625 -10.09375 L 3.59375 -4.578125 Z M 7.546875 -4.578125 "/></g></g></g><g fill="#dddaba" fill-opacity="1"><g transform="translate(44.416803, 18.234051)"><g><path d="M 7.265625 0.1875 C 6.359375 0.1875 5.519531 0.0195312 4.75 -0.3125 C 3.988281 -0.644531 3.328125 -1.097656 2.765625 -1.671875 C 2.203125 -2.253906 1.757812 -2.941406 1.4375 -3.734375 C 1.113281 -4.523438 0.953125 -5.375 0.953125 -6.28125 C 0.953125 -7.21875 1.117188 -8.085938 1.453125 -8.890625 C 1.785156 -9.703125 2.238281 -10.40625 2.8125 -11 C 3.394531 -11.59375 4.070312 -12.0625 4.84375 -12.40625 C 5.613281 -12.75 6.4375 -12.921875 7.3125 -12.921875 C 8.257812 -12.921875 9.144531 -12.71875 9.96875 -12.3125 C 10.789062 -11.914062 11.503906 -11.378906 12.109375 -10.703125 L 11.09375 -9.84375 C 10.601562 -10.414062 10.035156 -10.851562 9.390625 -11.15625 C 8.742188 -11.457031 8.039062 -11.609375 7.28125 -11.609375 C 6.570312 -11.609375 5.914062 -11.476562 5.3125 -11.21875 C 4.71875 -10.957031 4.203125 -10.59375 3.765625 -10.125 C 3.328125 -9.65625 2.984375 -9.101562 2.734375 -8.46875 C 2.492188 -7.84375 2.375 -7.148438 2.375 -6.390625 C 2.375 -5.628906 2.492188 -4.925781 2.734375 -4.28125 C 2.984375 -3.632812 3.332031 -3.078125 3.78125 -2.609375 C 4.226562 -2.148438 4.753906 -1.785156 5.359375 -1.515625 C 5.960938 -1.253906 6.628906 -1.125 7.359375 -1.125 C 8.148438 -1.125 8.867188 -1.28125 9.515625 -1.59375 C 10.160156 -1.914062 10.707031 -2.34375 11.15625 -2.875 L 12.109375 -2.046875 C 11.503906 -1.347656 10.789062 -0.800781 9.96875 -0.40625 C 9.144531 -0.0078125 8.242188 0.1875 7.265625 0.1875 Z M 7.265625 0.1875 "/></g></g></g></g></g></g></svg>